<?xml version="1.0" encoding="utf-8"?>
<!-- Generator: Adobe Illustrator 16.0.3, SVG Export Plug-In . SVG Version: 6.00 Build 0)  -->
<!DOCTYPE svg PUBLIC "-//W3C//DTD SVG 1.1//EN" "http://www.w3.org/Graphics/SVG/1.1/DTD/svg11.dtd">
<svg version="1.1" id="Layer_1" xmlns="http://www.w3.org/2000/svg" xmlns:xlink="http://www.w3.org/1999/xlink" x="0px" y="0px"
	 width="200px" height="200px" viewBox="0 0 200 200" enable-background="new 0 0 200 200" xml:space="preserve">
<g>
	<path fill-rule="evenodd" clip-rule="evenodd" fill="#3F3F3F" d="M48.626,61.902c-0.476,0.123-0.951,0.246-1.426,0.369
		c-0.165-0.02-0.356-0.106-0.491-0.051c-1.226,0.495-2.381,0.313-3.521-0.279c-0.322-0.168-0.685-0.276-1.041-0.36
		c-2.233-0.529-4.158-1.654-5.927-3.073c-0.735-0.59-1.387-1.307-2.183-1.793c-1.79-1.095-2.9-2.817-4.013-4.453
		c-1.595-2.344-2.009-5.178-2.635-7.903c-0.229-0.992,0.017-1.906,0.135-2.865c0.13-1.043-0.101-2.134,0.053-3.17
		c0.137-0.928,0.447-1.892,0.93-2.69c0.536-0.887,1.345-1.612,2.053-2.39c0.341-0.374,0.213-0.744-0.105-0.931
		c-1.246-0.734-2.534-1.287-4.064-0.953c-0.9,0.197-1.888,0.439-2.752,0.26c-1.601-0.333-3.192-0.862-4.132-2.424
		c-0.149-0.248-0.423-0.45-0.683-0.598c-1.506-0.853-2.36-2.246-3.019-3.754c-0.754-1.727-1.398-3.501-2.09-5.256
		c-0.185-0.713-0.369-1.426-0.553-2.138c0.356-0.092,0.713-0.185,1.07-0.277c0.109,0.046,0.217,0.128,0.328,0.135
		c0.93,0.055,1.867,0.046,2.79,0.155c1.238,0.146,2.511,0.237,3.684,0.615c1.218,0.393,2.523,0.494,3.636,1.361
		c1.17,0.913,2.548,1.595,3.905,2.227c1.764,0.822,3.244,0.262,4.153-1.393c0.116-0.209,0.225-0.473,0.412-0.583
		c1.18-0.698,1.812-1.731,2.083-3.056c0.071-0.344,0.359-0.681,0.626-0.941c0.561-0.542,1.23-0.98,1.755-1.552
		c1.442-1.578,3.122-2.779,5.183-3.367c0.363-0.103,1.104,0.036,1.2,0.263c0.379,0.897,0.721,1.862,0.799,2.824
		c0.127,1.557-0.034,3.135,0.058,4.697c0.081,1.375,0.296,2.732-0.371,4.031c-0.106,0.209-0.163,0.467-0.163,0.702
		c0,0.963-0.499,1.511-1.366,1.847c-0.408,0.157-0.992,0.385-1.095,0.708c-0.404,1.273-1.482,1.403-2.491,1.721
		c-0.421,0.133-0.941,0.257-1.194,0.566c-0.559,0.681-1.011,1.46-1.428,2.241c-0.104,0.194-0.001,0.705,0.165,0.802
		c0.748,0.436,1.551,0.778,2.335,1.15c0.354,0.169,0.722,0.312,1.067,0.497c1.271,0.684,2.106,1.778,2.832,2.99
		c0.65,1.083,1.48,2.079,2,3.218c0.54,1.184,0.823,2.487,1.181,3.75c0.724,2.554,1.448,5.109,2.123,7.677
		c0.455,1.73,0.744,3.507,1.254,5.218C50.373,57.958,49.888,59.981,48.626,61.902z"/>
</g>
<ellipse transform="matrix(0.9954 -0.0956 0.0956 0.9954 -2.3968 2.8719)" fill-rule="evenodd" clip-rule="evenodd" fill="#CE0000" cx="28.783" cy="26.457" rx="1.722" ry="0.806"/>
<ellipse transform="matrix(-0.8803 0.4743 -0.4743 -0.8803 76.9393 29.9585)" fill-rule="evenodd" clip-rule="evenodd" fill="#CE0000" cx="34.691" cy="24.684" rx="1.722" ry="0.806"/>
<g>
	<path fill-rule="evenodd" clip-rule="evenodd" fill="#3F3F3F" d="M113.763,192.806c-0.714-0.257-1.429-0.515-2.143-0.773
		c-0.192-0.168-0.361-0.442-0.581-0.491c-1.995-0.438-3.312-1.676-4.248-3.428c-0.265-0.495-0.632-0.948-1.016-1.366
		c-2.387-2.622-3.862-5.736-4.88-9.091c-0.423-1.394-0.63-2.876-1.222-4.192c-1.328-2.956-1.243-6.121-1.235-9.18
		c0.008-4.382,1.952-8.358,3.53-12.38c0.572-1.466,1.684-2.419,2.671-3.538c1.075-1.221,1.731-2.813,2.833-3.998
		c0.984-1.066,2.22-2.025,3.532-2.622c1.457-0.666,3.121-0.885,4.703-1.259c0.764-0.181,0.92-0.764,0.678-1.279
		c-0.949-2.026-2.109-3.854-4.354-4.763c-1.321-0.532-2.79-1.084-3.739-2.066c-1.75-1.819-3.319-3.884-3.156-6.698
		c0.026-0.447-0.146-0.941-0.351-1.357c-1.179-2.402-1.053-4.924-0.578-7.423c0.543-2.86,1.27-5.688,1.918-8.529
		c0.385-1.07,0.771-2.14,1.158-3.211c0.534,0.194,1.07,0.388,1.606,0.58c0.099,0.155,0.165,0.354,0.301,0.457
		c1.138,0.882,2.342,1.688,3.424,2.631c1.454,1.267,2.998,2.493,4.166,3.999c1.21,1.563,2.787,2.832,3.45,4.906
		c0.697,2.188,1.86,4.257,3.041,6.247c1.534,2.586,3.909,3.164,6.514,1.844c0.329-0.166,0.699-0.407,1.033-0.384
		c2.113,0.137,3.82-0.63,5.322-2.083c0.389-0.377,1.053-0.556,1.618-0.655c1.19-0.202,2.426-0.176,3.594-0.449
		c3.214-0.755,6.405-0.822,9.549,0.226c0.552,0.185,1.378,1.007,1.302,1.38c-0.301,1.477-0.704,3.007-1.444,4.301
		c-1.196,2.098-2.776,3.971-4.021,6.045c-1.098,1.823-2.008,3.742-3.99,4.818c-0.318,0.173-0.615,0.453-0.82,0.752
		c-0.84,1.229-1.953,1.493-3.354,1.167c-0.658-0.156-1.602-0.375-2.014-0.052c-1.625,1.272-3.114,0.497-4.68,0.022
		c-0.652-0.197-1.424-0.492-2.017-0.318c-1.307,0.382-2.563,0.98-3.776,1.614c-0.302,0.156-0.616,0.899-0.488,1.166
		c0.574,1.206,1.3,2.344,1.978,3.504c0.302,0.524,0.648,1.029,0.926,1.565c1.026,1.98,1.14,4.105,1.007,6.282
		c-0.115,1.95,0.075,3.945-0.256,5.852c-0.345,1.979-1.117,3.891-1.762,5.813c-1.303,3.89-2.608,7.779-3.987,11.646
		c-0.93,2.604-2.11,5.123-2.951,7.751C119.431,189.299,117.049,191.455,113.763,192.806z"/>
</g>
<ellipse transform="matrix(0.8757 0.4828 -0.4828 0.8757 77.7341 -41.4373)" fill-rule="evenodd" clip-rule="evenodd" fill="#CE0000" cx="119.357" cy="130.277" rx="2.661" ry="1.246"/>
<path fill-rule="evenodd" clip-rule="evenodd" fill="#CE0000" d="M125.797,132.888c-0.072,0.684,1.054,1.365,2.516,1.518
	c1.46,0.155,2.705-0.272,2.775-0.958c0.073-0.687-1.054-1.364-2.514-1.518C127.111,131.773,125.87,132.205,125.797,132.888z"/>
<path fill-rule="evenodd" clip-rule="evenodd" fill="#232323" d="M100.59,190.574c0.598,1.211,1.342,1.909,2.448,2.474
	c0.462,0.232,0.914,0.604,1.204,1.022c1.342,1.957,2.671,3.923,3.931,5.93h21.598c0.376-0.506,0.855-0.842,1.489-1.04
	c2.584-0.814,5.136-1.817,7.783-2.322c2.044-0.39,4.169-0.803,6.328,0.196c1.333,0.614,2.967,0.595,4.476,0.802
	c0.646,0.087,1.12,0.168,1.438,0.899c0.219,0.509,0.925,1.199,1.347,1.158c0.592-0.062,1.064,0.081,1.49,0.307h4.224
	c0.79-1.849,1.505-3.729,2.287-5.579c0.856-2.035,1.355-4.451,3.277-5.662c2.008-1.265,3.353-3.188,5.437-4.452
	c2.227-1.351,4.613-1.874,6.91-2.757c1.125-0.432,2.533-0.133,3.813-0.159c0.803-0.016,1.671,0.172,2.395-0.072
	c1.601-0.537,3.064-0.178,4.59,0.234c1.159,0.309,2.357,0.507,3.551,0.621c1.051,0.1,1.58-0.481,1.894-1.539
	c1.218-4.141,2.396-8.337,4.692-12.027c0.8-1.287,1.637-2.595,2.81-3.643v-40.752c-1.163,1.037-2.325,2.074-3.505,3.092
	c-1.05,0.902-2.143,1.748-3.222,2.612c-0.528,0.425-1.072,0.827-1.604,1.245c-1.396,1.092-2.775,2.203-4.192,3.27
	c-0.53,0.403-1.161,0.682-1.715,1.063c-0.661,0.454-1.277,0.972-1.933,1.438c-0.477,0.339-0.971,0.659-1.479,0.948
	c-0.879,0.497-1.76,0.984-2.666,1.427c-0.683,0.333-1.441,0.525-2.097,0.9c-1.054,0.603-1.987,1.451-3.085,1.931
	c-1.588,0.691-3.262,1.197-4.928,1.688c-2.621,0.774-5.255,1.509-7.903,2.184c-1.123,0.285-2.294,0.377-3.443,0.555
	c-1.095,0.169-2.187,0.366-3.288,0.493c-1.182,0.139-2.391,0.378-3.556,0.258c-0.919-0.094-1.772-0.773-2.478,0.42
	c-0.129,0.216-0.659,0.237-1.009,0.272c-4.283,0.401-8.558,0.12-12.827-0.219c-1.923-0.154-3.826-0.537-5.744-0.777
	c-0.798-0.096-1.607-0.085-2.583-0.129c0.292,1.459,0.548,2.545,0.721,3.643c0.215,1.364,0.462,2.735,0.511,4.111
	c0.068,1.975,0.227,4.003-0.127,5.924c-0.47,2.575-1.331,5.087-2.136,7.592c-1.256,3.91-2.52,7.824-3.94,11.677
	c-0.959,2.596-2.118,5.128-3.326,7.617c-0.874,1.802-2.586,2.725-4.366,3.477c-0.153,0.063-0.357,0.08-0.52,0.04
	c-2.446-0.597-4.76-1.385-5.956-3.909c-0.248-0.525-0.555-1.106-0.997-1.447c-2.487-1.909-2.898-4.967-3.896-7.562
	c-1.235-3.211-2.555-6.55-2.31-10.165c0.013-0.174-0.087-0.354-0.1-0.532c-0.075-1.155-0.241-2.313-0.18-3.459
	c0.06-1.11,0.365-2.208,0.549-3.313c0.146-0.879,0.151-1.802,0.437-2.63c0.441-1.285,0.997-2.543,1.635-3.745
	c0.69-1.307,1.008-2.876,2.467-3.695c0.282-0.159,0.391-0.597,0.621-0.87c1.177-1.399,2.307-2.844,3.569-4.162
	c0.969-1.011,2.108-1.854,3.23-2.823c-0.431-0.376-0.66-0.687-0.971-0.832c-2.909-1.367-5.85-2.672-8.743-4.071
	c-1.903-0.921-3.875-1.783-5.588-2.996c-3.731-2.642-7.333-5.465-10.952-8.259c-1.098-0.85-2.419-1.677-3.006-2.835
	c-0.519-1.02-1.132-1.684-1.957-2.384c-2.512-2.136-4.82-4.482-6.635-7.266c-0.168-0.257-0.43-0.458-0.673-0.657
	c-0.821-0.679-1.786-1.236-2.458-2.038c-2.009-2.409-3.904-4.908-5.843-7.373c-0.083-0.106-0.167-0.215-0.241-0.328
	c-1.497-2.3-3.061-4.558-4.463-6.913c-0.83-1.396-2.069-2.532-2.412-4.259c-0.391-1.965-1.672-2.528-3.497-1.794
	c-0.461,0.186-0.921,0.383-1.402,0.504c-1.301,0.328-2.676,0.463-3.908,0.96c-2.202,0.89-4.323,1.977-6.465,3.006
	c-0.402,0.193-0.761,0.489-1.113,0.771c-1.448,1.156-2.882,2.326-4.325,3.486c-1.604,1.291-3.34,2.452-4.781,3.905
	c-1.313,1.325-2.266,2.998-3.458,4.451c-0.566,0.693-1.48,1.125-1.946,1.86c-1.386,2.18-1.977,4.757-3.445,6.938
	c-0.657,0.974,0.059,1.92,1.258,1.91c3.038-0.027,5.874,0.813,8.368,2.39c2.195,1.385,4.404,2.976,4.745,5.982
	c0.121,1.077,0.19,2.232,1.232,3.014c0.322,0.241,0.542,0.799,0.564,1.225c0.19,3.66,1.668,7.21,0.856,10.965
	c-0.417,1.928-0.692,3.894-0.882,5.855c-0.044,0.462,0.415,1.219,0.843,1.423c0.792,0.385,1.722,0.553,2.61,0.646
	c1.419,0.147,2.856,0.107,4.276,0.238c1.936,0.179,3.546,1.007,5.056,2.289c2.388,2.027,5.679,3.006,7.077,6.179
	c0.053,0.12,0.173,0.208,0.258,0.315c0.635,0.789,1.36,1.521,1.879,2.38c0.589,0.974,0.971,2.071,1.483,3.093
	c1.212,2.417,1.934,4.923,1.613,7.665c-0.26,2.227,1.725,4.707,3.945,4.909c2.003,0.183,4.03,0.162,6.015,0.451
	c1.691,0.246,3.375,0.699,4.995,1.254c2.303,0.788,4.705,1.489,6.772,2.721c2.236,1.334,4.74,2.282,6.578,4.342
	c0.948,1.059,2.5,1.56,3.724,2.394C98.683,188.894,100.078,189.532,100.59,190.574z"/>
<path fill-rule="evenodd" clip-rule="evenodd" fill="#232323" d="M67.902,0c-0.058,0.175-0.113,0.35-0.169,0.525
	c-0.347,1.093-0.678,2.19-1.044,3.277c-0.138,0.411-0.372,0.79-0.529,1.196c-0.187,0.483-0.328,0.984-0.507,1.472
	c-0.131,0.356-0.277,0.707-0.444,1.048c-0.288,0.585-0.582,1.168-0.903,1.735c-0.243,0.428-0.578,0.808-0.791,1.248
	c-0.343,0.707-0.531,1.5-0.943,2.158c-0.595,0.949-1.305,1.831-2.015,2.701c-1.117,1.371-2.256,2.725-3.425,4.052
	c-0.495,0.563-1.086,1.04-1.636,1.555c-0.523,0.49-1.035,0.993-1.576,1.463c-0.582,0.505-1.14,1.074-1.806,1.436
	c-0.525,0.285-1.23,0.234-1.171,1.13c0.011,0.162-0.265,0.367-0.44,0.513c-2.14,1.779-4.527,3.189-6.931,4.566
	c-1.083,0.62-2.241,1.11-3.352,1.684c-0.462,0.239-0.89,0.541-1.428,0.873c0.689,0.673,1.222,1.159,1.716,1.682
	c0.612,0.651,1.246,1.293,1.773,2.011c0.757,1.03,1.583,2.056,2.096,3.21c0.688,1.548,1.146,3.204,1.631,4.836
	c0.757,2.547,1.51,5.1,2.158,7.677c0.436,1.736,0.741,3.511,1.005,5.284c0.191,1.281-0.387,2.399-1.063,3.45
	c-0.059,0.091-0.162,0.173-0.263,0.211c-1.525,0.575-3.049,0.998-4.609,0.087c-0.326-0.19-0.701-0.389-1.062-0.409
	c-2.025-0.111-3.36-1.595-4.842-2.617c-1.833-1.264-3.756-2.566-4.945-4.586c-0.057-0.097-0.176-0.157-0.248-0.249
	c-0.461-0.589-0.974-1.147-1.359-1.782c-0.374-0.615-0.611-1.313-0.916-1.97c-0.243-0.523-0.578-1.018-0.728-1.564
	c-0.233-0.848-0.395-1.723-0.494-2.597c-0.108-0.951-0.511-1.905-0.031-2.876c0.092-0.188-0.009-0.461,0.015-0.691
	c0.117-1.177,0.193-2.361,0.387-3.526c0.148-0.893,0.449-1.761,0.695-2.688c-0.367-0.043-0.604-0.125-0.822-0.09
	c-2.054,0.331-4.101,0.708-6.158,1.018c-1.354,0.203-2.722,0.462-4.079,0.44c-2.958-0.048-5.913-0.242-8.867-0.414
	c-0.896-0.052-1.904-0.011-2.641-0.415c-0.649-0.355-1.219-0.486-1.915-0.56C3.446,35.314,1.693,34.979,0,34.395V62.45
	c0.512-0.061,1.036-0.068,1.585-0.01c2.016,0.211,4.131-0.468,6.037,0.716c0.071,0.044,0.168,0.048,0.253,0.074
	c0.626,0.189,1.282,0.316,1.872,0.585c0.67,0.305,1.275,0.752,1.922,1.111c1.529,0.848,2.83,1.923,3.66,3.505
	c0.674,1.284,2.64,1.885,3.901,1.182c1.136-0.634,2.212-1.384,3.377-1.955c0.994-0.486,2.058-0.86,3.126-1.155
	c1.519-0.42,3.058-0.921,4.611-1.019c1.682-0.104,3.365-0.512,5.099-0.083c0.893,0.22,1.906-0.08,2.864-0.082
	c0.834-0.002,1.813-0.169,2.466,0.199c0.762,0.429,1.415,0.531,2.211,0.428c0.332-0.043,0.709-0.011,1.018,0.108
	c1.577,0.612,3.155,1.227,4.698,1.915c0.862,0.384,1.77,0.79,2.458,1.408c0.91,0.818,1.598,1.877,2.431,2.788
	c0.88,0.963,1.819,1.873,2.732,2.806c0.23-0.06,0.459-0.119,0.689-0.178c0.162-1.661,0.603-3.354,0.415-4.975
	c-0.237-2.045,0.286-3.865,0.806-5.742c0.077-0.277,0.1-0.578,0.097-0.866c-0.007-0.744,0.211-1.247,0.992-1.561
	c0.303-0.122,0.593-0.833,0.522-1.206c-0.125-0.656-0.001-1.163,0.377-1.643c1.084-1.378,2.081-2.846,3.31-4.083
	c0.95-0.954,1.935-1.951,3.453-2.207c0.936-0.158,1.802-0.765,2.683-1.205c0.377-0.189,0.66-0.32,1.097-0.044
	c0.303,0.19,0.933,0.302,1.142,0.126c0.675-0.572,1.406-0.36,2.127-0.369c1.003-0.012,1.283-0.303,1.089-1.309
	c-0.261-1.358-0.593-2.704-0.868-4.06c-0.285-1.399-0.901-2.873-0.316-4.222c0.612-1.408,0.626-2.927,1.278-4.362
	c0.696-1.535,1.781-2.686,2.685-3.997c0.443-0.641,1.305-0.996,1.978-1.477c0.423-0.302,0.955-0.519,1.253-0.913
	c0.659-0.872,1.572-1.213,2.537-1.551c0.732-0.257,1.445-0.59,2.124-0.964c0.597-0.33,0.668-0.834,0.449-1.513
	c-0.861-2.657-1.763-5.329-1.884-8.138c-0.058-1.324-0.096-2.695,0.54-4.009c0.345-0.711,0.152-1.663,0.332-2.477
	c0.171-0.768,0.246-1.602,1.157-2.047c0.265-0.129,0.228-0.843,0.362-1.28c0.128-0.414,0.286-0.822,0.458-1.22
	c0.174-0.399,0.363-0.794,0.581-1.17c0.479-0.829,0.944-1.669,1.481-2.46c0.613-0.904,1.343-1.73,1.938-2.644
	c0.24-0.368,0.407-0.783,0.575-1.205H67.902z"/>
</svg>
