<?xml version="1.0" encoding="utf-8"?>
<!-- Generator: Adobe Illustrator 16.0.3, SVG Export Plug-In . SVG Version: 6.00 Build 0)  -->
<!DOCTYPE svg PUBLIC "-//W3C//DTD SVG 1.1//EN" "http://www.w3.org/Graphics/SVG/1.1/DTD/svg11.dtd">
<svg version="1.1" id="Layer_1" xmlns="http://www.w3.org/2000/svg" xmlns:xlink="http://www.w3.org/1999/xlink" x="0px" y="0px"
	 width="200px" height="200px" viewBox="0 0 200 200" enable-background="new 0 0 200 200" xml:space="preserve">
<g>
	<path fill-rule="evenodd" clip-rule="evenodd" d="M35.257,190.251c0-0.742,0-1.485,0-2.229c0.608-2.737,1.106-5.506,1.857-8.202
		c0.752-2.7,2.588-4.041,5.34-4.071c2.147-0.023,4.297,0.128,6.637,0.21c-0.115-1.317-0.207-2.973-0.413-4.613
		c-0.483-3.845-1.415-7.678-1.45-11.523c-0.063-7.034,0.264-14.08,0.664-21.109c0.406-7.138,1.075-14.251,2.969-21.207
		c1.579-5.8,3.314-11.558,2.005-17.799c-0.371-1.765,0.73-4.077,1.707-5.832c1.482-2.664,3.446-5.06,5.253-7.638
		c-1.425-0.971-2.647-1.923-3.977-2.689c-5.314-3.063-9.572-7.195-12.555-12.544c-1.957-3.511-4.739-6.673-4.967-10.982
		c-0.062-1.169-0.406-2.346-0.323-3.498c0.208-2.876,0.017-5.961,1.028-8.557c1.553-3.983,3.995-7.618,6.016-11.424
		c0.285-0.537,0.552-1.257,0.432-1.807c-1.335-6.136-2.784-12.249-4.122-18.385c-0.529-2.427-0.855-4.899-1.274-7.35
		c0.124,0,0.248,0,0.372,0c6.263,4.628,12.51,9.278,18.814,13.85c0.527,0.382,1.514,0.491,2.155,0.294
		c5.701-1.752,11.583-2.698,17.479-2.857c5.451-0.146,11.008,0.292,15.868,3.389c0.979,0.624,1.73,0.426,2.629-0.262
		c5.648-4.323,11.34-8.589,17.019-12.872c0.716-0.54,1.273-1.251,2.419-0.542c1.238,0.768,0.526,1.661,0.357,2.418
		c-1.638,7.334-3.301,14.664-5.07,21.968c-0.37,1.531-0.169,2.678,0.817,3.883c2.665,3.253,4.307,6.939,5.067,11.134
		c0.959,5.288,0.947,10.353-1.386,15.327c-2.47,5.269-4.848,10.581-9.559,14.317c-1.127,0.894-1.195,1.678-0.708,2.962
		c5.61,14.795,12.303,29.159,16.87,44.379c3.163,10.547,7.531,20.734,9.129,31.729c0.397,2.733,0.624,5.491,0.937,8.293
		c4.569,0.132,9.026,0.624,13.001-2.108c4.063-2.794,9.202-4.748,8.424-11.179c-0.008-0.06,0.023-0.123,0.021-0.184
		c-0.155-7.073,0.325-14.162-2.067-21.074c-2.906-8.4-6.719-16.148-13.377-22.266c-1.773-1.63-3.182-3.684-5.052-5.175
		c-2.296-1.829-2.453-4.024-1.942-6.542c0.204-1.007,0.129-2.289,0.729-2.958c2.101-2.347,4.083-5.088,7.878-4.651
		c0.292,0.033,0.601-0.138,0.906-0.175c2.015-0.249,4.21-1.103,6.003-0.583c2.622,0.763,4.954,2.515,7.74,4.023
		c-2.181,0.197-3.9,0.353-5.622,0.508c-0.109,0.226-0.22,0.452-0.33,0.677c1.866,1.67,3.73,3.341,5.71,5.115
		c-1.287,0.214-2.29,0.382-3.446,0.576c0.519,0.863,0.946,1.538,1.338,2.232c2.18,3.861,4.836,7.54,6.41,11.635
		c2.401,6.246,4.164,12.749,5.981,19.204c1.196,4.256,2.01,8.62,2.996,12.937c0,0.495,0,0.99,0,1.486
		c-0.119,0.66-0.301,1.318-0.347,1.984c-0.369,5.29-0.718,10.585-2.654,15.604c-0.28,0.725-0.663,1.455-1.167,2.041
		c-4.115,4.796-8.823,8.818-15.053,10.555c-3.188,0.889-6.453,1.554-9.717,2.12c-5.769,1-5.873,0.902-7.849,6.45
		c-0.947,2.658-2.51,4.872-4.496,6.677c-1.188,1.078-2.986,1.844-4.595,2.04c-7.541,0.917-15.028-0.47-22.543-0.83
		c-5.986-0.289-11.969-0.83-17.956-0.868c-5.246-0.033-10.521,0.244-15.735,0.821c-4.379,0.484-8.688,1.598-13.029,2.433
		c-1.238,0-2.476,0-3.714,0c-1.28-0.115-2.56-0.245-3.842-0.344c-1.284-0.1-2.735,0.188-3.823-0.317
		c-2.768-1.286-5.961-2.274-6.658-5.947C35.413,190.293,35.313,190.276,35.257,190.251z"/>
</g>
<g>
	<path fill-rule="evenodd" clip-rule="evenodd" fill="#CEFF00" d="M88.748,53.946c0-0.619,0-1.238,0-1.856
		c3.302-0.572,6.603-1.144,9.507-1.646c1.201,2.63,2.292,5.019,3.55,7.775c1.816-3.386,0.458-6.177,0.125-9.129
		c3.552-1.237,7.07-2.461,10.589-3.686c0.358,0,0.715,0,1.113,0c0,1.238,0,2.476,0,3.714c-0.406,0.73-0.738,1.515-1.23,2.183
		c-3.283,4.458-5.644,9.963-12.14,10.816c-0.495,0-0.99,0-1.485,0C95.222,59.652,91.575,57.302,88.748,53.946z"/>
</g>
<g>
	<path fill-rule="evenodd" clip-rule="evenodd" fill="#CEFF00" d="M70.174,55.061c0-0.62,0-1.239,0-1.857
		c-3.302-0.571-6.603-1.142-9.506-1.645c-1.202,2.63-2.292,5.019-3.551,7.775c-1.816-3.386-0.457-6.178-0.125-9.129
		c-3.552-1.237-7.07-2.461-10.588-3.686c-0.357,0-0.715,0-1.114,0c0,1.238,0,2.476,0,3.713c0.407,0.731,0.739,1.516,1.231,2.184
		c3.282,4.457,5.644,9.962,12.14,10.816c0.496,0,0.99,0,1.486,0C63.7,60.766,67.347,58.417,70.174,55.061z"/>
</g>
</svg>
