<?xml version="1.0" encoding="utf-8"?>
<!-- Generator: Adobe Illustrator 16.0.3, SVG Export Plug-In . SVG Version: 6.00 Build 0)  -->
<!DOCTYPE svg PUBLIC "-//W3C//DTD SVG 1.1//EN" "http://www.w3.org/Graphics/SVG/1.1/DTD/svg11.dtd">
<svg version="1.1" id="Layer_1" xmlns="http://www.w3.org/2000/svg" xmlns:xlink="http://www.w3.org/1999/xlink" x="0px" y="0px"
	 width="200px" height="200px" viewBox="0 0 200 200" enable-background="new 0 0 200 200" xml:space="preserve">
<g>
	<path fill-rule="evenodd" clip-rule="evenodd" fill="#353535" d="M110.136,31.035c2.399,0,4.798,0,7.197,0
		c0.896,0.139,1.788,0.332,2.689,0.408c5.543,0.465,11.241,0.245,16.603,1.488c11.756,2.725,23.619,5.406,34.088,11.909
		c0.681,0.423,1.27,1.045,1.789,1.668c2.36,2.833,2.577,5.649-0.025,8.526c-0.741,0.819-1.303,1.859-1.735,2.887
		c-1.448,3.443-2.046,7.107-0.591,10.578c1.845,4.398,4.23,8.568,6.327,12.862c0.58,1.188,1.117,2.438,1.411,3.719
		c1.842,8.059,4.595,15.931,5.063,24.275c0,2.258,0,4.516,0,6.773c-0.564,3.031-1.127,6.063-1.692,9.093
		c-0.71,3.802-0.799,7.863-2.261,11.349c-3.044,7.252-6.803,14.204-10.309,21.261c-0.366,0.738-0.959,1.382-1.518,2.006
		c-7.434,8.31-15.966,15.184-25.716,20.689c-5.046,2.849-10.326,4.795-15.825,6.27c-5.832,1.564-11.737,2.854-17.612,4.265
		c-1.692,0-3.387,0-5.08,0c-1.249-0.139-2.496-0.318-3.749-0.406c-3.023-0.21-6.149,0.046-9.058-0.636
		c-10.745-2.517-21.724-4.528-31.327-10.389c-5.03-3.069-10.24-6.146-14.471-10.165c-9.133-8.674-17.042-18.407-21.676-30.39
		c-2.155-5.574-4.683-11.022-4.965-17.147c-0.063-1.376-0.454-2.737-0.693-4.105c0-2.54,0-5.08,0-7.62
		c0.22-2.015,0.269-4.065,0.688-6.037c2.522-11.828,6.342-23.169,12.488-33.678c1.595-2.728,2.119-5.82,1.75-9.128
		c-0.309-2.77-1.938-4.591-3.45-6.591c-1.213-1.605-1.409-4.638-0.175-6.189c3.03-3.808,6.894-6.9,11.284-8.598
		c5.337-2.065,11.068-3.283,16.731-4.296c13.682-2.446,27.542-3.257,41.411-3.857C101.867,31.646,106,31.303,110.136,31.035z"/>
</g>
<g>
	<path fill-rule="evenodd" clip-rule="evenodd" fill="#212121" d="M149.51,191.076c-5.257,0.039-8.853-3.378-12.787-6.113
		c-2.251-1.565-4.555-3.054-7.117-4.766c0.754-0.486,1.343-0.891,1.954-1.257c4.569-2.732,9.144-5.457,13.717-8.185
		c0.282,0,0.564,0,0.847,0c0.819,0.832,1.553,1.777,2.473,2.477c4.097,3.112,7.812,6.451,8.25,12.058
		c0.007,0.102,0.186,0.188,0.284,0.283c0,0.282,0,0.564,0,0.847c-1.834,1.553-3.669,3.104-5.504,4.656
		C150.921,191.076,150.216,191.076,149.51,191.076z"/>
	<path fill-rule="evenodd" clip-rule="evenodd" fill="#212121" d="M39.863,184.303c0.593-5.42,4.682-8.368,8.295-11.628
		c0.381-0.345,1.208-0.532,1.693-0.375c5.474,1.771,10.921,3.622,16.372,5.464c0.108,0.036,0.171,0.207,0.616,0.78
		c-5.516,3.64-10.991,7.265-16.481,10.866c-0.925,0.606-1.915,1.113-2.875,1.666c-0.283,0-0.565,0-0.847,0
		c-2.258-1.27-4.516-2.54-6.774-3.81C39.863,186.278,39.863,185.29,39.863,184.303z"/>
</g>
<path fill-rule="evenodd" clip-rule="evenodd" fill="#212121" d="M168.699,117.926c-6.283,11.368-16.286,22.202-29.275,30.659
	c-31.646,20.606-69.018,19.313-83.474-2.89c-1.126-1.728-2.08-3.533-2.866-5.401c-0.833,10.229,1.396,20.353,7.085,29.089
	c15.561,23.898,51.071,28.361,79.317,9.97C162.163,164.588,173.258,139.58,168.699,117.926z"/>
<ellipse fill-rule="evenodd" clip-rule="evenodd" fill="#136300" cx="102.315" cy="51.993" rx="61.816" ry="13.972"/>
<path fill-rule="evenodd" clip-rule="evenodd" fill="#0C3800" d="M157.679,47.679c-2.499,7.159-27.322,12.782-57.583,12.782
	c-26.968,0-49.621-4.465-55.999-10.505c-0.137,0.393-0.211,0.79-0.211,1.19c0,7.717,25.875,13.972,57.794,13.972
	c31.918,0,57.794-6.255,57.794-13.972C159.474,49.95,158.85,48.788,157.679,47.679z"/>
<circle fill-rule="evenodd" clip-rule="evenodd" fill="#0C3800" cx="75.006" cy="37.598" r="7.409"/>
<ellipse fill-rule="evenodd" clip-rule="evenodd" fill="#0C3800" cx="103.584" cy="25.954" rx="3.387" ry="3.599"/>
<ellipse fill-rule="evenodd" clip-rule="evenodd" fill="#0C3800" cx="90.248" cy="12.617" rx="1.906" ry="2.117"/>
<path fill-rule="evenodd" clip-rule="evenodd" fill="#0C3800" d="M115.389,50.299c0.031-0.278,0.051-0.56,0.051-0.847
	c0-4.092-3.316-7.41-7.409-7.41c-4.092,0-7.409,3.317-7.409,7.41c0,0.287,0.021,0.568,0.052,0.847H115.389z"/>
</svg>
