<?xml version="1.0" encoding="utf-8"?>
<!-- Generator: Adobe Illustrator 16.0.3, SVG Export Plug-In . SVG Version: 6.00 Build 0)  -->
<!DOCTYPE svg PUBLIC "-//W3C//DTD SVG 1.1//EN" "http://www.w3.org/Graphics/SVG/1.1/DTD/svg11.dtd">
<svg version="1.1" id="Layer_1" xmlns="http://www.w3.org/2000/svg" xmlns:xlink="http://www.w3.org/1999/xlink" x="0px" y="0px"
	 width="200px" height="200px" viewBox="0 0 200 200" enable-background="new 0 0 200 200" xml:space="preserve">
<g>
	<path fill-rule="evenodd" clip-rule="evenodd" fill="#FFFFFF" d="M7.895,105.06c-0.042-1.327-0.126-2.659-0.114-3.981
		c0.02-2.143-0.052-4.303,0.206-6.414c0.25-2.062,0.818-4.082,1.341-6.099c0.267-1.03,0.804-1.998,1.106-3.021
		c1.52-5.135,5.348-8.997,11.251-11.427c3.033-1.25,6.643-1.844,10.093-2.521c2.75-0.54,5.647-0.769,8.486-1.115
		c2.436-0.297,4.912-0.489,7.317-0.86c4.995-0.771,9.785-1.885,12.785-5.119c1.735-1.871,3.349-3.821,4.812-5.831
		c1.684-2.311,3.233-4.691,4.663-7.111c0.983-1.665,1.642-3.455,2.487-5.175c0.635-1.292,1.297-2.577,2.014-3.839
		c0.936-1.647,1.97-3.257,2.903-4.905c0.933-1.647,1.742-3.343,2.703-4.979c0.733-1.244,1.604-2.435,2.442-3.637
		c0.747-1.067,1.477-2.146,2.318-3.167c1.467-1.779,2.884-3.596,4.565-5.25c1.693-1.666,3.557-3.251,5.573-4.693
		c2.493-1.781,5.48-2.962,9.06-3.471c2.994-0.425,6.08-0.581,9.036-0.012c3.873,0.745,7.339,2.401,9.989,4.964
		c3.271,3.162,5.386,6.663,6.765,10.377c1.522,4.095,2.911,8.209,4.338,12.318c1.127,3.25,2.063,6.529,3.377,9.748
		c1.363,3.34,3.013,6.647,6.079,9.496c1.456,1.352,3.077,2.362,5.437,2.851c4.273,0.886,8.574,1.879,12.668,3.243
		c3.859,1.286,7.646,2.898,11.146,4.74c5.884,3.096,10.649,6.996,13.919,11.893c2.003,2.998,3.252,6.1,4.086,9.245
		c0.594,2.231,0.586,4.531,0.566,6.777c-0.024,2.92-0.215,5.833-0.557,8.716c-0.168,1.427-0.824,2.784-1.281,4.167
		c-0.262,0.79-0.546,1.576-0.854,2.354c-0.554,1.396-1.098,2.797-1.709,4.176c-0.868,1.961-1.785,3.906-2.7,5.854
		c-0.145,0.308-0.385,0.583-0.773,1.161c-0.313-0.621-0.542-0.929-0.623-1.249c-1.148-4.534-3.857-8.7-7.441-12.52
		c-2.606-2.777-5.941-5.146-9.81-7.047c-3.178-1.561-6.383-2.908-10.019-3.595c-1.853-0.349-3.544-1.001-5.57-1.066
		c-3.789-0.121-6.486,1.172-8.968,2.755c-4.225,2.697-7.191,6.184-9.779,9.885c-1.401,2.008-3.001,3.925-4.404,5.931
		c-0.912,1.303-1.583,2.712-2.443,4.038c-0.791,1.217-1.712,2.377-2.532,3.582c-0.758,1.112-1.491,2.237-2.179,3.382
		c-1.394,2.323-2.677,4.694-4.143,6.989c-1.422,2.223-3.047,4.36-4.523,6.562c-1.406,2.096-2.674,4.251-4.112,6.332
		c-1.18,1.708-2.491,3.356-3.792,5.008c-1.38,1.75-2.776,3.494-4.242,5.199c-1.364,1.585-2.794,3.138-4.264,4.665
		c-1.556,1.613-3.153,3.204-4.806,4.759c-1.562,1.468-3.077,2.984-4.86,4.289c-3.224,2.358-6.437,4.762-10.02,6.802
		c-3.585,2.042-7.418,3.939-11.516,5.386c-3.797,1.341-8.077,2.021-12.166,2.95c-1.101,0.25-2.28,0.354-3.714,0.567
		c0.125-0.503,0.121-0.772,0.257-0.98c0.509-0.774,1.081-1.523,1.602-2.294c1.557-2.295,3.207-4.552,4.613-6.907
		c1.033-1.729,1.72-3.596,2.601-5.387c0.894-1.817,1.847-3.613,2.752-5.426c0.341-0.685,0.688-1.375,0.914-2.091
		c1.227-3.893,2.464-7.782,3.605-11.695c0.992-3.405,2.139-6.794,2.706-10.275c0.613-3.767,0.789-7.617,0.864-11.459
		c0.061-3.156-0.271-6.351-0.493-9.529c-0.127-1.825-0.286-3.655-0.611-5.479c-0.281-1.578-0.756-3.157-1.253-4.725
		c-0.622-1.964-1.192-3.945-2.069-5.866c-2.39-5.231-5.527-10.246-11.963-13.566c-2.938-1.515-6.113-2.481-9.968-2.348
		c-7.811,0.271-13.949,2.751-19.511,6.104c-4.175,2.519-7.932,5.414-11.874,8.14c-0.403,0.279-0.803,0.56-1.204,0.841
		C8.284,105.133,8.089,105.097,7.895,105.06z M126.358,47.313c-0.129-0.045-0.258-0.091-0.387-0.136
		c0.138-0.778,0.271-1.558,0.412-2.336c0.505-2.796,0.355-5.621-1.395-8.339c-1.794-2.786-3.663-3.039-6.026-1.496
		c-1.468,0.96-2.226,2.255-3.133,3.535c-1.865,2.63-2.134,5.596-2.264,8.527c-0.092,2.067,0.623,4.276,1.414,6.361
		c0.856,2.26,3.518,3.272,5.476,2.258c1.091-0.566,2.201-1.303,2.752-2.19C124.441,51.511,125.329,49.383,126.358,47.313z
		 M86.75,40.049c-0.838,4.239-0.654,7.34,0.689,10.382c0.5,1.132,1.799,2.387,3.152,3.031c1.503,0.717,2.762-0.272,3.845-1.064
		c2.767-2.026,3.576-4.823,4.294-7.584c0.503-1.93,0.422-4.004,0.429-6.027c0.005-2.093-0.66-4.122-2.503-5.936
		c-0.915-0.9-2.527-1.404-3.688-0.95c-0.925,0.362-1.843,0.857-2.451,1.477C88.275,35.666,87.168,38.38,86.75,40.049z
		 M96.883,70.784c0.172,0.015,0.436,0.037,0.701,0.059c3.167,0.271,6.332,0.524,9.495,0.822c1.221,0.115,2.436,0.347,3.657,0.497
		c1.48,0.182,1.895-0.156,1.338-1.238c-1.162-2.251-3.11-4.199-5.711-5.574c-1.173-0.621-3.217-0.855-4.515-0.572
		c-2.885,0.63-4.593,2.459-6.139,4.285C95.021,69.876,95.488,70.517,96.883,70.784z"/>
	<path fill-rule="evenodd" clip-rule="evenodd" fill="#3F3F3F" d="M126.358,47.313c-1.029,2.07-1.917,4.198-3.15,6.184
		c-0.551,0.887-1.661,1.624-2.752,2.19c-1.958,1.014-4.619,0.002-5.476-2.258c-0.791-2.084-1.506-4.293-1.414-6.361
		c0.13-2.932,0.398-5.897,2.264-8.527c0.907-1.28,1.665-2.575,3.133-3.535c2.363-1.543,4.232-1.29,6.026,1.496
		c1.75,2.718,1.899,5.542,1.395,8.339c-0.141,0.778-0.274,1.558-0.412,2.336C126.101,47.223,126.229,47.268,126.358,47.313z"/>
	<path fill-rule="evenodd" clip-rule="evenodd" fill="#3F3F3F" d="M86.75,40.049c0.419-1.668,1.526-4.383,3.767-6.67
		c0.608-0.62,1.526-1.115,2.451-1.477c1.161-0.455,2.773,0.049,3.688,0.95c1.844,1.813,2.508,3.843,2.503,5.936
		c-0.007,2.023,0.075,4.097-0.429,6.027c-0.718,2.761-1.527,5.558-4.294,7.584c-1.083,0.792-2.342,1.781-3.845,1.064
		c-1.353-0.644-2.652-1.899-3.152-3.031C86.095,47.389,85.912,44.288,86.75,40.049z"/>
	<path fill-rule="evenodd" clip-rule="evenodd" fill="#3F3F3F" d="M96.883,70.784c-1.395-0.267-1.862-0.908-1.173-1.722
		c1.546-1.826,3.253-3.655,6.139-4.285c1.298-0.283,3.342-0.048,4.515,0.572c2.601,1.375,4.549,3.323,5.711,5.574
		c0.557,1.082,0.143,1.419-1.338,1.238c-1.222-0.149-2.437-0.382-3.657-0.497c-3.163-0.297-6.328-0.551-9.495-0.822
		C97.319,70.82,97.055,70.798,96.883,70.784z"/>
</g>
</svg>
