<?xml version="1.0" encoding="utf-8"?>
<!-- Generator: Adobe Illustrator 16.0.3, SVG Export Plug-In . SVG Version: 6.00 Build 0)  -->
<!DOCTYPE svg PUBLIC "-//W3C//DTD SVG 1.1//EN" "http://www.w3.org/Graphics/SVG/1.1/DTD/svg11.dtd">
<svg version="1.1" id="Layer_1" xmlns="http://www.w3.org/2000/svg" xmlns:xlink="http://www.w3.org/1999/xlink" x="0px" y="0px"
	 width="200px" height="200px" viewBox="0 0 200 200" enable-background="new 0 0 200 200" xml:space="preserve">
<g>
	<path fill-rule="evenodd" clip-rule="evenodd" fill="#3A2F22" d="M7.639,191.982c-0.218-0.118-0.615-0.22-0.625-0.354
		c-0.059-0.818-0.029-1.643-0.029-2.465c0.151-0.045,0.413-0.056,0.438-0.142c0.625-2.212,0.945-4.586,1.902-6.611
		c1.092-2.308,2.693-4.354,4.192-6.412c0.533-0.732,1.458-1.117,2.129-1.752c0.598-0.563,1.05-1.307,1.646-1.872
		c0.858-0.817,2.354-1.389,2.578-2.339c0.555-2.354,2.046-2.933,3.833-3.522c0.483-0.16,0.834-1.02,1.097-1.632
		c0.137-0.319-0.214-0.889-0.07-1.195c0.998-2.115,2.631-3.688,4.567-4.573c2.106-0.961,4.431-1.367,6.7-2.027
		c-0.074-3.332,4.255-6.658,6.472-6.646c3.411,0.018,7.083-0.694,9.639,2.721c0.524-0.501,0.881-0.859,1.255-1.196
		c2.004-1.804,7.294-2.161,9.546-0.718c0.385,0.248,0.978,0.332,1.42,0.226c2.408-0.576,4.781-1.293,7.3-1.109
		c0.463,0.034,1.094-0.405,1.425-0.827c3.376-4.319,9.297-5.236,13.749-2.153c0.426,0.295,1.29,0.374,1.694,0.104
		c2.763-1.846,5.63-2.479,8.786-1.389c0.378,0.131,0.978-0.016,1.31-0.277c1.43-1.129,2.797-2.348,4.188-3.533
		c0.98,0,1.962,0,2.943,0c1.529,1.022,3.091,1.745,4.881,0.697c0.227-0.133,0.649-0.322,0.729-0.229
		c0.813,0.932,0.684-0.184,0.928-0.468c1.635,0,3.27,0,4.904,0c1.538,0.64,3.063,1.324,4.623,1.892
		c0.386,0.14,0.933,0.014,1.33-0.176c4.827-2.301,7.541,0.154,9.371,3.917c0.497,1.021,0.828,1.171,1.813,0.827
		c2.723-0.948,5.555-0.65,8.303-0.242c3.046,0.452,5.272,2.558,7.157,5.073c4.38-1.757,6.276-1.484,10.011,0.642
		c2.284-2.281,4.695-2.663,7.329,0.539c0.354,0.429,0.963,1.26,0.88,1.362c-1.009,1.236,0.294,1.291,0.724,1.717
		c2.335,2.318,5.627,2.437,8.32,4.102c1.528,0.944,2.365,1.829,2.82,3.4c0.49,1.69,1.216,2.397,2.751,1.998
		c2.423-0.629,5.541,2.082,5.364,4.15c-0.282,3.313,3.038,4.049,3.352,6.703c3.091,2.295,3.212,6.358,4.854,9.517
		c0.127,0.245-0.09,0.675-0.028,0.993c0.035,0.181,0.31,0.31,0.476,0.462c0,0.822,0.029,1.646-0.029,2.465
		c-0.009,0.135-0.406,0.236-0.625,0.354c-0.427-0.2-0.855-0.576-1.281-0.571c-2.986,0.029-5.971,0.207-8.956,0.209
		c-58.762,0.015-117.522,0.01-176.284,0.026C8.838,191.646,8.239,191.865,7.639,191.982z"/>
</g>
<g>
	<path fill-rule="evenodd" clip-rule="evenodd" fill="#515151" d="M165.231,44.994c0,39.709,0,79.418,0,119.129
		c-1.889-0.508-3.35,0.273-4.577,1.761c-0.108,0-0.218,0-0.327,0c-0.215-0.24-0.394-0.556-0.653-0.712
		c-2.432-1.451-4.992-1.611-7.589-0.665c-0.87,0.318-1.519,0.446-2.122-0.467c-1.595-2.413-3.95-3.52-6.515-4.126
		c-3.112-0.736-6.211-0.609-9.279,0.707c-0.143-0.35-0.266-0.593-0.346-0.853c-1.428-4.633-6.14-6.355-9.722-4.429
		c-0.578,0.311-1.562,0.089-2.236-0.207c-3.6-1.581-7.252-1.771-10.913-0.476c-1.064,0.377-1.88,0.39-2.868-0.135
		c-2.846-1.511-6.059-0.713-8.07,1.902c-0.34,0.443-0.665,0.898-0.978,1.322c-3.167-1.204-6.224-1.017-8.974,0.811
		c-1.186,0.788-1.844,0.563-2.845-0.086c-3.982-2.584-10.358-1.596-12.923,2.116c-0.702,1.014-1.403,0.981-2.321,1.077
		c-1.529,0.159-3.082,0.351-4.552,0.803c-1.441,0.442-2.743,0.882-4.171-0.086c-0.651-0.442-1.51-0.591-2.296-0.727
		c-3.022-0.521-5.65,0.425-7.764,2.707c-4.151-3.31-8.369-3.93-12.853-1.298c0-39.356,0-78.714,0-118.071
		c1.198-0.668,2.383-1.363,3.595-1.999c10.545-5.534,21.104-11.038,31.642-16.59c8.74-4.605,17.449-9.278,26.2-13.861
		c0.533-0.28,1.408-0.274,1.945,0.002c6.104,3.141,12.179,6.352,18.252,9.562C136.394,29.73,150.812,37.364,165.231,44.994z
		 M101.869,120.13c-1.176-1.98-2.151-3.641-3.145-5.288c-0.686-1.136-1.438-2.227-2.088-3.385c-1.227-2.185-2.312-4.466-3.627-6.584
		c-0.783-1.262-1.893-2.287-2.931-3.508c0.654-0.252,1.212-0.45,1.761-0.679c3.779-1.576,5.638-4.702,5.365-9.009
		c-0.279-4.419-3.611-8.492-8.165-9.182c-3.584-0.543-7.262-0.385-10.899-0.51c-1.285-0.044-2.573-0.007-3.927-0.007
		c0,12.838,0,25.419,0,38.013c2.267,0,4.402,0,6.669,0c0-2.617,0-5.07,0-7.524c0-2.436,0-4.871,0-7.254
		c2.428-0.48,4.25,0.27,5.676,2.007c1.003,1.223,1.945,2.527,2.752,3.907c1.496,2.558,2.849,5.214,4.318,7.79
		c0.282,0.493,0.811,1.136,1.25,1.159C97.14,120.192,99.41,120.13,101.869,120.13z M123.81,119.953
		c0-3.846,0.047-7.522-0.027-11.195c-0.023-1.159,0.115-1.773,1.363-1.71c1.244,0.064,2.511,0.042,3.746-0.125
		c5.475-0.74,9.739-3.43,10.999-9.625c1.451-7.136-2.057-13.754-8.401-14.712c-4.592-0.693-9.297-0.521-14.127-0.743
		c0,12.92,0,25.486,0,38.11C119.456,119.953,121.458,119.953,123.81,119.953z M105.523,82.126c0,12.689,0,25.221,0,37.764
		c2.181,0,4.214,0,6.278,0c0-12.644,0-25.164,0-37.764C109.681,82.126,107.686,82.126,105.523,82.126z"/>
	<path fill-rule="evenodd" clip-rule="evenodd" fill="#3F3F3F" stroke="#686868" stroke-width="2" stroke-miterlimit="10" d="
		M101.869,120.13c-2.459,0-4.729,0.063-6.991-0.054c-0.439-0.023-0.969-0.666-1.25-1.159c-1.469-2.576-2.822-5.232-4.318-7.79
		c-0.807-1.38-1.749-2.685-2.752-3.907c-1.426-1.737-3.248-2.487-5.676-2.007c0,2.383,0,4.818,0,7.254c0,2.454,0,4.907,0,7.524
		c-2.268,0-4.403,0-6.669,0c0-12.594,0-25.175,0-38.013c1.354,0,2.642-0.037,3.927,0.007c3.637,0.125,7.314-0.033,10.899,0.51
		c4.553,0.69,7.886,4.762,8.165,9.182c0.273,4.308-1.586,7.433-5.365,9.009c-0.548,0.229-1.107,0.427-1.761,0.679
		c1.038,1.221,2.148,2.246,2.931,3.508c1.315,2.118,2.401,4.399,3.627,6.584c0.65,1.158,1.403,2.249,2.088,3.385
		C99.718,116.489,100.693,118.149,101.869,120.13z M80.893,98.799c2.382-0.299,4.556-0.349,6.618-0.892
		c2.099-0.552,3.005-2.519,2.905-5.253c-0.069-1.898-1.024-3.282-3.074-3.726c-1.846-0.399-3.77-0.415-5.663-0.486
		c-0.251-0.009-0.744,0.65-0.751,1.009C80.865,92.375,80.893,95.302,80.893,98.799z"/>
	<path fill-rule="evenodd" clip-rule="evenodd" fill="#3F3F3F" stroke="#686868" stroke-width="2" stroke-miterlimit="10" d="
		M123.81,119.953c-2.352,0-4.354,0-6.447,0c0-12.624,0-25.19,0-38.11c4.83,0.222,9.535,0.05,14.127,0.743
		c6.345,0.958,9.853,7.576,8.401,14.712c-1.26,6.195-5.524,8.884-10.999,9.625c-1.235,0.167-2.502,0.189-3.746,0.125
		c-1.248-0.063-1.387,0.551-1.363,1.71C123.856,112.431,123.81,116.107,123.81,119.953z M123.89,100.922
		c0.911-0.051,1.759-0.14,2.605-0.137c6.344,0.029,7.725-3.942,6.9-8.992c-0.257-1.577-1.213-2.741-2.664-2.981
		c-2.218-0.367-4.476-0.453-6.842-0.669C123.89,92.571,123.89,96.59,123.89,100.922z"/>
	<path fill-rule="evenodd" clip-rule="evenodd" fill="#3F3F3F" stroke="#686868" stroke-width="2" stroke-miterlimit="10" d="
		M105.523,82.126c2.162,0,4.157,0,6.278,0c0,12.6,0,25.12,0,37.764c-2.064,0-4.098,0-6.278,0
		C105.523,107.347,105.523,94.815,105.523,82.126z"/>
	<path fill-rule="evenodd" clip-rule="evenodd" fill="#515151" d="M80.893,98.799c0-3.497-0.027-6.423,0.035-9.347
		c0.007-0.359,0.5-1.019,0.751-1.009c1.893,0.071,3.817,0.087,5.663,0.486c2.05,0.443,3.005,1.828,3.074,3.726
		c0.1,2.734-0.807,4.701-2.905,5.253C85.448,98.45,83.274,98.5,80.893,98.799z"/>
	<path fill-rule="evenodd" clip-rule="evenodd" fill="#515151" d="M123.89,100.922c0-4.332,0-8.351,0-12.779
		c2.366,0.217,4.624,0.303,6.842,0.669c1.451,0.24,2.407,1.404,2.664,2.981c0.824,5.05-0.557,9.021-6.9,8.992
		C125.648,100.782,124.801,100.871,123.89,100.922z"/>
</g>
</svg>
