<?xml version="1.0" encoding="utf-8"?>
<!-- Generator: Adobe Illustrator 16.0.3, SVG Export Plug-In . SVG Version: 6.00 Build 0)  -->
<!DOCTYPE svg PUBLIC "-//W3C//DTD SVG 1.1//EN" "http://www.w3.org/Graphics/SVG/1.1/DTD/svg11.dtd">
<svg version="1.1" id="Layer_1" xmlns="http://www.w3.org/2000/svg" xmlns:xlink="http://www.w3.org/1999/xlink" x="0px" y="0px"
	 width="200px" height="200px" viewBox="0 0 200 200" enable-background="new 0 0 200 200" xml:space="preserve">
<g>
	<path fill-rule="evenodd" clip-rule="evenodd" fill="#EF7F0F" d="M97.871,53.17c1.378,0,2.755,0,4.132,0
		c1.108,0.305,2.373,0.365,3.294,0.959c2.705,1.744,5.363,3.591,7.858,5.619c1.245,1.012,2.151,1.139,3.196,0.015
		c2.221-2.39,4.977-3.787,8.052-4.798c3.117-1.023,6.144-1.321,9.024,0.407c2.439,1.465,4.78,3.107,7.072,4.798
		c1.448,1.067,2.969,1.512,4.521,0.669c4.327-2.348,8.272-1.999,12.733,0.216c3.965,1.97,5.833,5.69,8.843,8.4
		c1.641,1.477,2.408,3.984,3.402,6.105c1.967,4.197,4.047,8.364,5.652,12.702c1.646,4.449,2.868,9.065,4.113,13.651
		c0.973,3.586,1.192,7.463,2.675,10.799c1.471,3.311,1.371,6.535,1.419,9.885c0.009,0.621,0.146,1.238,0.203,1.857
		c0.557,6.021,1.321,12.033,1.603,18.068c0.292,6.236,0.165,12.496,0.117,18.744c-0.02,2.488-0.104,5.014-0.55,7.451
		c-0.433,2.361-1.384,4.625-2.08,6.938c-1.418,4.717-4.258,8.133-8.918,9.961c-4.586,1.799-9.357,1.684-14.167,1.713
		c-2.353,0.012-4.725,0.711-7.038,1.291c-1.042,0.262-1.916,1.143-2.948,1.496c-7.614,2.609-15.459,2.293-23.317,1.742
		c-1.854-0.131-3.579-0.047-5.427,0.736c-3.06,1.299-6.337,2.105-9.56,2.986c-1.461,0.398-3.008,0.479-4.516,0.703
		c-2.754,0-5.509,0-8.264,0c-0.732-0.127-1.468-0.236-2.197-0.383c-4.006-0.807-8.17-1.182-11.965-2.566
		c-3.171-1.158-5.882-2.428-9.545-1.734c-4.245,0.803-8.715,0.457-13.088,0.541c-3.832,0.072-7.546-0.604-11.114-2.027
		c-3.171-1.266-6.281-2.832-9.71-3.176c-3.707-0.373-7.448-0.447-11.177-0.553c-3.724-0.107-6.901-1.676-9.171-4.363
		c-1.66-1.965-2.88-4.578-3.483-7.098c-0.982-4.098-1.575-8.338-1.84-12.551c-0.465-7.41-0.739-14.846-0.735-22.271
		c0.002-4.041,0.76-8.078,1.14-12.121c0.215-2.289,0.266-4.596,0.55-6.875c0.308-2.469,0.801-4.914,1.211-7.369
		c0.133-0.799,0.195-1.617,0.402-2.396c1.682-6.303,3.215-12.654,5.153-18.877c1.228-3.939,2.922-7.757,4.685-11.497
		c1.397-2.967,3.173-5.762,4.872-8.577c0.672-1.112,1.933-1.957,2.338-3.127c1.579-4.567,5.335-6.849,9.202-8.872
		c3.215-1.682,6.77-0.993,9.956,0.2c2.451,0.917,4.592,1.04,6.304-1.048c2.296-2.803,5.55-4.334,8.727-5.031
		c4.455-0.978,8.756,0.739,12.515,3.39c0.962,0.678,1.722,1.674,2.736,2.231c0.573,0.314,1.801,0.354,2.175-0.027
		C90.05,56.921,93.503,54.345,97.871,53.17z M98.515,166.141c3.587-0.344,7.175-0.676,10.761-1.031
		c1.14-0.113,1.812-0.65,1.786-1.932c-0.02-1.047-0.033-2.148,0.261-3.131c0.284-0.949,0.754-2.082,1.509-2.607
		c3.163-2.193,6.569-1.004,7.436,2.691c0.409,1.742,1.365,1.742,2.547,1.518c0.96-0.184,1.921-0.564,2.779-1.041
		c6.069-3.371,11.82-7.16,16.47-12.434c3.379-3.832,6.413-7.891,8.641-12.502c0.292-0.604,0.211-1.389,0.304-2.09
		c-0.697-0.029-1.416-0.184-2.088-0.068c-2.733,0.469-5.449,1.041-8.178,1.539c-4.706,0.859-5.421,0.506-6.555,5.445
		c-0.111,0.482-0.08,1.02-0.283,1.453c-0.239,0.512-0.562,1.121-1.021,1.367c-2.111,1.137-3.688,0.324-4.233-2.061
		c-0.182-0.787-0.576-1.557-0.6-2.344c-0.044-1.51-0.879-1.719-2.108-1.635c-4.855,0.334-9.711,0.814-14.573,0.902
		c-6.491,0.119-12.995,0.066-19.48-0.203c-3.241-0.135-4.804,0.633-5.719,3.795c-0.36,1.25-0.921,2.439-1.335,3.676
		c-0.547,1.631-1.838,2.172-3.351,2.168c-3.154-0.008-5.685-2.668-5.748-5.902c-0.071-3.648-1.947-5.42-5.542-5.563
		c-2.786-0.111-5.582-0.367-8.335-0.803c-3.782-0.6-7.523-1.453-11.294-2.143c-1.386-0.252-1.809,0.371-1.179,1.711
		c0.604,1.287,1.246,2.564,1.986,3.775c2.831,4.631,6.495,8.559,10.085,12.615c4.036,4.559,9.005,7.496,14.241,9.951
		C82.842,164.607,90.564,165.965,98.515,166.141z M113.387,114.359c1.415,0,2.351,0.061,3.277-0.008
		c6.212-0.469,12.422-0.967,18.633-1.447c3.847-0.295,7.7-0.518,11.541-0.879c2.363-0.223,2.566-0.799,1.301-2.785
		c-2.729-4.285-5.408-8.604-8.16-12.873c-2.478-3.844-5.025-7.643-7.542-11.461c-0.931-1.413-1.673-1.34-2.519,0.153
		c-2.382,4.203-4.847,8.359-7.279,12.533c-2.82,4.84-5.655,9.672-8.45,14.528C113.844,112.721,113.708,113.439,113.387,114.359z
		 M51.424,111.297c0.119,0.211,0.237,0.422,0.355,0.633c11.549,0.889,23.098,1.779,34.646,2.668
		c0.098-0.197,0.196-0.396,0.294-0.594c-0.518-0.803-0.883-1.787-1.58-2.377c-2.344-1.977-4.794-3.826-7.223-5.701
		c-4.263-3.289-8.542-6.559-12.812-9.84c-0.917-0.705-1.621-0.791-2.449,0.294c-3.281,4.3-6.667,8.519-9.984,12.792
		C52.172,109.816,51.836,110.586,51.424,111.297z"/>
	<path fill-rule="evenodd" clip-rule="evenodd" fill="#7A2900" d="M98.515,166.141c-7.95-0.176-15.673-1.533-22.816-4.881
		c-5.236-2.455-10.205-5.393-14.241-9.951c-3.59-4.057-7.254-7.984-10.085-12.615c-0.74-1.211-1.382-2.488-1.986-3.775
		c-0.63-1.34-0.207-1.963,1.179-1.711c3.771,0.689,7.512,1.543,11.294,2.143c2.753,0.436,5.549,0.691,8.335,0.803
		c3.595,0.143,5.471,1.914,5.542,5.563c0.063,3.234,2.594,5.895,5.748,5.902c1.513,0.004,2.804-0.537,3.351-2.168
		c0.414-1.236,0.975-2.426,1.335-3.676c0.915-3.162,2.478-3.93,5.719-3.795c6.485,0.27,12.989,0.322,19.48,0.203
		c4.862-0.088,9.718-0.568,14.573-0.902c1.229-0.084,2.064,0.125,2.108,1.635c0.023,0.787,0.418,1.557,0.6,2.344
		c0.546,2.385,2.122,3.197,4.233,2.061c0.459-0.246,0.781-0.855,1.021-1.367c0.203-0.434,0.172-0.971,0.283-1.453
		c1.134-4.939,1.849-4.586,6.555-5.445c2.729-0.498,5.444-1.07,8.178-1.539c0.672-0.115,1.391,0.039,2.088,0.068
		c-0.093,0.701-0.012,1.486-0.304,2.09c-2.228,4.611-5.262,8.67-8.641,12.502c-4.649,5.273-10.4,9.063-16.47,12.434
		c-0.858,0.477-1.819,0.857-2.779,1.041c-1.182,0.225-2.138,0.225-2.547-1.518c-0.866-3.695-4.272-4.885-7.436-2.691
		c-0.755,0.525-1.225,1.658-1.509,2.607c-0.294,0.982-0.28,2.084-0.261,3.131c0.025,1.281-0.646,1.818-1.786,1.932
		C105.689,165.465,102.102,165.797,98.515,166.141z"/>
	<path fill-rule="evenodd" clip-rule="evenodd" fill="#D81900" d="M113.387,114.359c0.321-0.92,0.457-1.639,0.802-2.238
		c2.795-4.855,5.63-9.688,8.45-14.528c2.433-4.174,4.897-8.33,7.279-12.533c0.846-1.493,1.588-1.566,2.519-0.153
		c2.517,3.818,5.064,7.617,7.542,11.461c2.752,4.269,5.432,8.587,8.16,12.873c1.266,1.986,1.063,2.563-1.301,2.785
		c-3.841,0.361-7.694,0.584-11.541,0.879c-6.211,0.48-12.421,0.979-18.633,1.447C115.737,114.42,114.802,114.359,113.387,114.359z"
		/>
	<path fill-rule="evenodd" clip-rule="evenodd" fill="#D81900" d="M51.424,111.297c0.412-0.711,0.748-1.48,1.247-2.125
		c3.317-4.273,6.703-8.492,9.984-12.792c0.828-1.085,1.532-0.999,2.449-0.294c4.27,3.281,8.549,6.551,12.812,9.84
		c2.429,1.875,4.879,3.725,7.223,5.701c0.697,0.59,1.063,1.574,1.58,2.377c-0.098,0.197-0.196,0.396-0.294,0.594
		c-11.548-0.889-23.097-1.779-34.646-2.668C51.661,111.719,51.543,111.508,51.424,111.297z"/>
</g>
<g>
	<path fill-rule="evenodd" clip-rule="evenodd" fill="#0E9300" d="M119.539,29.5c0,0.626,0,1.252,0,1.878
		c-0.682,1.038-1.271,2.152-2.06,3.102c-3.492,4.207-5.973,8.997-8.155,13.961c-0.9,2.048-0.247,4.026,1.676,5.095
		c2.173,1.206,4.405,2.306,6.558,3.546c0.407,0.234,0.879,0.996,0.778,1.369c-0.736,2.737-4.313,3.687-6.48,1.898
		c-1.918-1.58-3.777-3.481-6.009-4.386c-7.475-3.028-14.037-0.58-19.362,5.841c-0.502,0-1.002,0-1.503,0
		c-1.544-1.191-3.629-1.85-4.142-4.085c3.803-2.14,7.563-4.186,11.248-6.356c1.981-1.167,3.83-2.472,4.938-4.692
		c1.635-3.275,3.406-6.495,5.328-9.61c1.98-3.21,1.839-4.921-0.668-7.646c-4.03-4.382-9.684-5.721-14.775-8.107
		c-0.535-0.251-1.374-0.069-2.003,0.131c-4.353,1.382-7.587,4.168-9.841,8.103c-0.706,1.232-1.307,2.527-1.93,3.807
		c-0.834,1.714-0.144,3.969,1.501,4.881c2.505,1.389,4.926,2.972,8.027,2.711c0.48-0.04,1.461,0.723,1.479,1.146
		c0.115,2.727-3.594,4.744-6.046,3.462c-3.361-1.759-6.809-3.355-10.147-5.153c-0.96-0.517-1.675-1.489-2.502-2.253
		c0-0.125,0-0.251,0-0.376c0.628-1.55,1.23-3.11,1.89-4.646c1.339-3.122,2.591-6.289,4.095-9.331
		c1.872-3.787,4.413-6.889,8.535-8.644c3.214-1.37,6.228-3.219,9.875-2.966c1.261,0.087,2.688,0.196,3.716,0.824
		c4.93,3.015,9.738,6.227,14.61,9.337C111.943,24.75,115.748,27.115,119.539,29.5z"/>
</g>
</svg>
