<?xml version="1.0" encoding="utf-8"?>
<!-- Generator: Adobe Illustrator 16.0.3, SVG Export Plug-In . SVG Version: 6.00 Build 0)  -->
<!DOCTYPE svg PUBLIC "-//W3C//DTD SVG 1.1//EN" "http://www.w3.org/Graphics/SVG/1.1/DTD/svg11.dtd">
<svg version="1.1" id="Layer_1" xmlns="http://www.w3.org/2000/svg" xmlns:xlink="http://www.w3.org/1999/xlink" x="0px" y="0px"
	 width="200px" height="200px" viewBox="0 0 200 200" enable-background="new 0 0 200 200" xml:space="preserve">
<path fill-rule="evenodd" clip-rule="evenodd" d="M170.232,140.164c-0.967-5.871-2.701-11.527-5.199-16.945
	c-3.617-7.85-8.576-14.73-14.803-20.711c-3.039-2.918-6.34-5.512-9.869-7.806c-5.49-3.566-11.387-6.281-17.676-8.092
	c-2.68-0.771-5.416-1.343-8.037-1.967c-0.037,1.47-0.119,2.905-0.244,4.3c5.629,0.309,10.809,2.691,15.027,6.53
	c1.266,0.611,2.535,1.217,3.771,1.884c7.66,4.131,14.08,9.723,19.385,16.608c3.381,4.387,6.072,9.17,8.15,14.303
	c2.791,6.898,4.25,14.066,4.43,21.506c0.125,5.199-0.432,10.32-1.564,15.389c-1.074,4.797-2.869,9.348-4.959,13.77
	c-0.945,2-2.258,3.828-3.43,5.717c-0.932,1.498-0.695,3.316,0.59,4.207c1.518,1.051,3.277,0.773,4.295-0.863
	c1.414-2.275,2.773-4.594,4-6.975c2.018-3.926,3.521-8.053,4.674-12.324c1.18-4.367,1.889-8.791,2.207-13.293
	C171.342,150.289,171.061,145.203,170.232,140.164z"/>
<polygon fill-rule="evenodd" clip-rule="evenodd" points="96.305,53.067 99.175,57.887 98.57,61.513 95.095,60.316 92.226,55.497 
	92.83,51.871 "/>
<polygon fill-rule="evenodd" clip-rule="evenodd" points="110.383,53.134 109.294,58.636 106.42,60.928 104.636,57.715 
	105.725,52.213 108.598,49.92 "/>
<g>
	<path fill-rule="evenodd" clip-rule="evenodd" d="M94.662,75.515c-0.441-0.174-0.894-0.331-1.328-0.527
		c-3.469-1.567-6.504-3.71-9.108-6.441c-0.173-0.528-0.407-1.073-0.703-1.614c-0.827-1.512-1.944-2.638-2.979-3.126
		c-4.233-6.746-5.738-14.128-4.854-21.992c0.509-4.522,1.948-8.787,4.299-12.716c0.816-1.364,0.587-2.593-0.591-3.261
		c-1.196-0.678-2.384-0.271-3.128,1.104c-0.558,1.029-1.107,2.064-1.605,3.123c-2.129,4.528-3.235,9.306-3.449,14.301
		c-0.211,4.94,0.492,9.746,2.139,14.403c0.993,2.81,2.307,5.471,3.996,7.933c0.105,0.153,0.427,0.284,0.636,0.271
		c0.161,0.787,0.473,1.64,0.933,2.481c0.979,1.786,2.359,3.033,3.53,3.327c0.355,0.35,0.721,0.688,1.112,0.991
		c1.864,1.451,3.804,2.805,5.551,4.079c-3.452-1.217-6.761-3.152-9.809-5.365c-0.248-0.468-0.581-0.937-0.999-1.372
		c-0.746-0.777-1.607-1.302-2.396-1.521c-0.134-0.141-0.309-0.218-0.438-0.341c-3.398-3.252-6.222-6.943-8.338-11.148
		c-3.773-7.496-5.258-15.4-4.228-23.769c0.578-4.693,1.88-9.153,3.987-13.373c0.751-1.505,1.669-2.925,2.498-4.391
		c0.618-1.093,0.343-2.346-0.625-2.942c-1.06-0.654-2.273-0.382-2.984,0.683c-1.895,2.833-3.4,5.864-4.588,9.057
		c-2.337,6.283-3.246,12.757-2.727,19.448c0.286,3.694,0.992,7.293,2.154,10.8c1.64,4.947,4.062,9.479,7.278,13.594
		c3.858,4.935,8.476,8.972,13.975,11.98c1.391,0.761,2.822,1.448,4.312,2.209c-0.195,0.083-0.314,0.16-0.444,0.186
		c-2.239,0.439-4.491,0.815-6.716,1.315c-8.943,2.014-17.524,5.05-25.601,9.403c-7.989,4.308-15.223,9.609-21.129,16.587
		c-3.745,4.424-6.781,9.268-8.764,14.736c-0.174,0.479-0.154,1.027-0.225,1.543c0.096,0.035,0.19,0.07,0.286,0.104
		c-0.176,0.148-0.367,0.281-0.524,0.447c-0.78,0.814-0.749,1.303,0.026,2.154c0.155,0.172,0.124,0.514,0.18,0.775
		c-0.083,0.031-0.166,0.063-0.249,0.092c-0.25-0.279-0.501-0.559-0.821-0.918c-0.085,0.354-0.176,0.596-0.195,0.844
		c-0.026,0.342,0.067,0.701-0.01,1.025c-0.096,0.398-0.423,0.76-0.461,1.154c-0.22,2.277-0.424,4.557-0.548,6.84
		c-0.07,1.293,0.87,2.201,2.096,2.205c1.186,0.004,2.054-0.877,2.149-2.109c0.158-2.051,0.26-4.111,0.546-6.146
		c0.611-4.344,2.217-8.385,4.267-12.213c1.191-2.223,2.76-4.26,4.276-6.293c2.91-3.902,6.472-7.17,10.282-10.17
		c3.618-2.85,7.527-5.251,11.609-7.375c4.541-2.361,9.258-4.305,14.12-5.897c4.668-1.529,9.434-2.679,14.255-3.598
		c1.28-0.244,2.576-0.406,3.864-0.606c-0.067,0.189-0.163,0.231-0.263,0.256c-5.177,1.261-10.14,3.092-14.882,5.522
		c-6.106,3.131-11.6,7.118-16.499,11.907c-3.756,3.672-6.99,7.779-9.804,12.217c-3.091,4.875-5.507,10.07-7.233,15.568
		c-1.76,5.604-2.718,11.354-3.034,17.234c-0.25,4.656,0.131,9.258,0.826,13.832c0.707,4.646,1.967,9.17,3.69,13.557
		c1.75,4.457,3.899,8.703,6.606,12.656c0.749,1.094,2.073,1.49,3.25,1.074c1.366-0.48,2.059-1.516,2.056-2.926
		c-0.002-1.162-0.779-1.926-1.316-2.816c-2.203-3.654-4.082-7.457-5.555-11.471c-1.865-5.084-3.025-10.316-3.474-15.697
		c-0.394-4.719-0.247-9.43,0.447-14.135c0.873-5.918,2.553-11.58,5.076-16.984c3.91-8.373,9.491-15.475,16.604-21.369
		c3.936-3.26,8.227-5.957,12.832-8.184c1.284-0.621,2.749-0.834,3.838-1.961c1.916-1.983,4.219-3.523,6.677-4.732
		c1.962-0.965,4.008-1.785,6.079-2.502c-0.063-1.2-0.097-2.426-0.097-3.672c0-2.558,0.138-5.032,0.395-7.375
		C94.671,75.495,94.667,75.505,94.662,75.515z M73.535,71.637c0.002,0.014,0.005,0.028,0.008,0.043
		c-0.017,0.002-0.033,0.003-0.049,0.006C73.507,71.669,73.521,71.653,73.535,71.637z"/>
	<path fill-rule="evenodd" clip-rule="evenodd" d="M190.18,131.971c-0.646-4.338-1.939-8.496-3.91-12.424
		c-1.891-3.773-4.053-7.354-7.158-10.297c-2.074-1.969-4.039-4.055-6.084-6.055c-1.541-1.508-3.023-3.102-4.721-4.414
		c-4.789-3.704-10.049-6.649-15.561-9.144c-8.016-3.627-16.363-6.183-25.029-7.704c-1.719-0.302-3.439-0.6-5.295-0.923
		c0.244-0.141,0.359-0.219,0.484-0.275c3.656-1.68,7.031-3.809,10.117-6.389c0.375-0.313,0.641-0.699,0.805-1.111
		c0.033,0.019,0.068,0.037,0.104,0.056c1.271-1.533,2.545-3.065,3.813-4.601c0.197-0.238,0.328-0.563,0.57-0.725
		c1.479-0.975,2.223-2.539,3.193-3.918c0.025-0.036,0.047-0.082,0.064-0.132c0.162,0.102,0.322,0.21,0.496,0.314
		c0.164-0.232,0.307-0.407,0.42-0.601c3.08-5.222,5.059-10.825,5.912-16.836c0.762-5.356,0.553-10.663-0.561-15.949
		c-1.152-5.481-3.297-10.549-6.334-15.243c-0.818-1.263-2.023-1.539-3.145-0.778c-0.977,0.663-1.084,1.952-0.385,3.125
		c0.965,1.616,1.949,3.233,2.744,4.935c3.584,7.668,4.686,15.7,3.375,24.069c-0.91,5.813-2.998,11.163-6.223,16.075
		c-0.648,0.987-1.348,1.941-2.021,2.91c0.029,0.048,0.061,0.096,0.09,0.144c-0.75,0.752-1.5,1.504-2.244,2.262
		c-0.078,0.079-0.148,0.153-0.213,0.226c0.033-0.078,0.072-0.156,0.117-0.234c-2.373,1.85-4.699,3.782-7.15,5.537
		c-2.559,1.833-6.754,3.832-8.012,3.971c0.072-0.062,0.131-0.129,0.205-0.17c6.264-3.45,10.893-8.487,14.068-14.831
		c3.293-6.577,4.441-13.581,3.691-20.899c-0.557-5.421-2.205-10.478-4.994-15.16c-0.746-1.255-1.877-1.601-3.035-0.933
		c-1.084,0.625-1.387,1.846-0.676,3.048c2.512,4.245,4.01,8.813,4.471,13.724c0.404,4.317,0.113,8.579-1.127,12.744
		c-2.295,7.698-6.678,13.854-13.598,18.065c-1.023,0.622-2.113,1.134-3.213,1.663c0.285,2.458,0.439,5.064,0.439,7.766
		c0,0.561-0.008,1.116-0.021,1.668c0.078,0.002,0.158,0.005,0.238,0.013c1.422,0.145,2.852,0.247,4.264,0.465
		c4.053,0.624,8.127,1.151,12.137,1.987c5.586,1.165,11.016,2.896,16.316,5.038c8.115,3.28,15.613,7.589,22.262,13.296
		c5.172,4.439,9.465,9.615,12.506,15.76c2.029,4.1,3.359,8.412,3.785,12.979c0.119,1.281,0.105,2.574,0.223,3.857
		c0.105,1.164,1.055,1.998,2.109,1.959c1.182-0.045,2.121-0.957,2.078-2.176C190.5,135.791,190.463,133.859,190.18,131.971z"/>
</g>
<circle fill-rule="evenodd" clip-rule="evenodd" fill="#5B5B5B" cx="103.002" cy="73" r="16.167"/>
<circle fill-rule="evenodd" clip-rule="evenodd" fill="#232323" cx="104.167" cy="126.167" r="48"/>
<ellipse transform="matrix(0.9967 -0.0811 0.0811 0.9967 -9.4496 8.8813)" fill-rule="evenodd" clip-rule="evenodd" fill="#515151" cx="104.668" cy="120.833" rx="28" ry="36.833"/>
<circle fill-rule="evenodd" clip-rule="evenodd" fill="#005E07" cx="90.167" cy="143.167" r="10"/>
<circle fill-rule="evenodd" clip-rule="evenodd" fill="#1A9900" cx="130.001" cy="120" r="3.5"/>
<circle fill-rule="evenodd" clip-rule="evenodd" fill="#18841D" cx="99.167" cy="151.834" r="6.333"/>
<ellipse fill-rule="evenodd" clip-rule="evenodd" fill="#32FF00" cx="94.708" cy="63.063" rx="1.417" ry="1.583"/>
<ellipse fill-rule="evenodd" clip-rule="evenodd" fill="#32FF00" cx="91.833" cy="62.625" rx="1.417" ry="1.583"/>
<ellipse fill-rule="evenodd" clip-rule="evenodd" fill="#32FF00" cx="95.248" cy="66.976" rx="2.627" ry="2.936"/>
<ellipse fill-rule="evenodd" clip-rule="evenodd" fill="#32FF00" cx="89.918" cy="66.165" rx="2.627" ry="2.936"/>
<ellipse transform="matrix(0.9219 -0.3874 0.3874 0.9219 -15.8654 49.3558)" fill-rule="evenodd" clip-rule="evenodd" fill="#32FF00" cx="114.51" cy="64.037" rx="2.627" ry="2.936"/>
<ellipse transform="matrix(0.9219 -0.3874 0.3874 0.9219 -16.7838 47.4333)" fill-rule="evenodd" clip-rule="evenodd" fill="#32FF00" cx="109.281" cy="65.354" rx="2.627" ry="2.936"/>
<ellipse transform="matrix(0.8859 -0.464 0.464 0.8859 -15.441 58.9784)" fill-rule="evenodd" clip-rule="evenodd" fill="#32FF00" cx="112.146" cy="60.871" rx="1.417" ry="1.583"/>
<ellipse transform="matrix(0.8859 -0.4638 0.4638 0.8859 -16.193 57.7907)" fill-rule="evenodd" clip-rule="evenodd" fill="#32FF00" cx="109.396" cy="61.817" rx="1.417" ry="1.583"/>
</svg>
