<?xml version="1.0" encoding="utf-8"?>
<!-- Generator: Adobe Illustrator 16.0.3, SVG Export Plug-In . SVG Version: 6.00 Build 0)  -->
<!DOCTYPE svg PUBLIC "-//W3C//DTD SVG 1.1//EN" "http://www.w3.org/Graphics/SVG/1.1/DTD/svg11.dtd">
<svg version="1.1" id="Layer_1" xmlns="http://www.w3.org/2000/svg" xmlns:xlink="http://www.w3.org/1999/xlink" x="0px" y="0px"
	 width="200px" height="200px" viewBox="0 0 200 200" enable-background="new 0 0 200 200" xml:space="preserve">
<path fill-rule="evenodd" clip-rule="evenodd" fill="#FFFFFF" d="M25.052,180.924c-2.657-1.234-4.536-3.147-5.477-5.859
	c-1.494-4.305,0.163-8.363,4.155-10.337c3.769-1.862,8.237-0.652,10.451,3.307c1.154,2.063,2.228,2.034,4.167,1.495
	c9.988-2.781,20.017-5.411,30.031-8.1c0.339-0.091,0.665-0.234,1.495-0.527c-11.734-3.141-23.026-6.161-34.285-9.173
	c-2.264,4.673-5.296,6.646-9.478,6.276c-2.848-0.251-6.046-2.883-6.718-5.885c-1.151-5.141,1.195-8.699,5.624-11.216
	c-1.795-2.838-2.513-5.786-1.408-9.028c1.326-3.891,4.803-6.187,8.644-5.641c4.29,0.612,7.261,3.685,7.188,7.932
	c-0.038,2.17,0.613,2.933,2.716,3.485c18.736,4.918,37.43,9.992,56.147,14.981c0.82,0.22,1.796,0.263,2.607,0.046
	c19.523-5.201,39.033-10.448,58.546-15.69c0.054-0.014,0.097-0.064,0.32-0.222c-0.157-4.549,0.799-8.774,5.994-10.235
	c3.254-0.915,6.354-0.194,8.478,2.646c2.825,3.777,2.573,7.728,0.042,11.717c0.667,0.437,1.317,0.816,1.919,1.263
	c3.089,2.293,4.482,5.426,3.923,9.175c-0.487,3.29-2.69,5.33-5.83,6.328c-3.627,1.149-7.597-0.56-9.542-4.335
	c-0.735-1.428-1.442-1.551-2.866-1.159c-10.229,2.806-20.483,5.519-30.729,8.266c-0.445,0.119-0.879,0.289-1.741,0.576
	c11.711,3.141,23.022,6.173,34.368,9.215c2.066-4.03,4.792-6.915,9.656-6.182c3.318,0.503,6.118,3.291,6.702,6.361
	c0.765,4.005-1.176,7.583-5.818,10.604c2.626,4.27,2.853,8.589-0.676,12.418c-2.279,2.471-5.397,2.979-8.555,1.77
	c-4.613-1.77-5.503-5.659-5.276-10.149c-4.68-1.269-9.298-2.533-13.927-3.771c-14.996-4.012-29.994-8.023-45.001-12.003
	c-0.707-0.188-1.545-0.258-2.239-0.074c-19.413,5.159-38.814,10.356-58.217,15.556c-0.283,0.076-0.546,0.226-0.911,0.38
	c0.205,4.498-0.74,8.501-5.584,10.162c-3.179,1.091-6.269,0.479-8.486-2.075C22.146,189.401,22.434,185.196,25.052,180.924z"/>
<path fill-rule="evenodd" clip-rule="evenodd" d="M89.962,59.236c-0.228,9.104-7.585,16.027-16.765,15.777
	c-8.72-0.239-15.651-7.766-15.451-16.782c0.193-8.697,7.748-15.702,16.728-15.509C83.141,42.907,90.183,50.416,89.962,59.236z"/>
<path fill-rule="evenodd" clip-rule="evenodd" d="M109.368,58.671c0.182-8.995,7.417-16.085,16.255-15.933
	c9.109,0.156,16.137,7.456,15.979,16.597c-0.155,9.033-7.742,16.177-17.271,15.573C115.695,74.36,109.355,67.621,109.368,58.671z"/>
<path fill-rule="evenodd" clip-rule="evenodd" fill="#262626" d="M106.976,94.209c-4.972-2.616-9.74-2.688-14.664,0.209
	c0.08-5.539,0.367-10.726,2.936-15.434c2.291-4.196,6.544-4.146,8.882,0.042c2.168,3.885,2.522,8.214,2.839,12.534
	C107.023,92.319,106.976,93.085,106.976,94.209z"/>
<circle fill-rule="evenodd" clip-rule="evenodd" fill="#383838" cx="86.466" cy="51.534" r="3.333"/>
<circle fill-rule="evenodd" clip-rule="evenodd" fill="#383838" cx="137.423" cy="49.629" r="3.333"/>
<path fill-rule="evenodd" clip-rule="evenodd" fill="#FFFFFF" d="M83.731,131.011c0-3.682,0-7.23,0-10.868c-3.56,0-6.979,0-10.552,0
	c0,3.631,0,7.179,0,10.862c-3.512,0-6.871,0-10.425,0c0-1.872-0.064-3.808,0.011-5.738c0.285-7.252,0.654-14.501,0.873-21.755
	c0.023-0.777-0.53-1.793-1.14-2.333C54.332,93.944,48.001,85.4,44.533,75.021c-6.126-18.33-2.692-35.216,8.823-50.415
	C62.925,11.976,75.941,4.728,91.578,2.642c30.459-4.062,58.561,15.213,64.942,44.587c3.679,16.932-0.959,31.97-11.562,45.326
	c-2.317,2.92-4.996,5.587-7.736,8.127c-1.297,1.201-1.655,2.338-1.576,3.998c0.393,8.139,0.681,16.284,0.998,24.427
	c0.024,0.588,0.004,1.179,0.004,1.9c-3.434,0-6.791,0-10.371,0c0-3.55,0-7.142,0-10.841c-3.638,0-7.055,0-10.677,0
	c0,3.607,0,7.2,0,10.882c-3.573,0-6.942,0-10.55,0c0-3.584,0-7.174,0-10.878c-3.647,0-7.058,0-10.645,0c0,3.62,0,7.167,0,10.841
	C90.821,131.011,87.41,131.011,83.731,131.011z M89.962,59.236c0.221-8.82-6.821-16.329-15.488-16.514
	c-8.98-0.192-16.535,6.813-16.728,15.509c-0.2,9.016,6.731,16.543,15.451,16.782C82.377,75.264,89.734,68.34,89.962,59.236z
	 M109.368,58.671c-0.013,8.95,6.327,15.689,14.964,16.237c9.528,0.604,17.115-6.541,17.271-15.573
	c0.157-9.141-6.87-16.44-15.979-16.597C116.785,42.586,109.55,49.676,109.368,58.671z M106.976,94.209
	c0-1.124,0.048-1.89-0.008-2.649c-0.316-4.32-0.671-8.648-2.839-12.534c-2.338-4.188-6.591-4.238-8.882-0.042
	c-2.569,4.708-2.856,9.895-2.936,15.434C97.236,91.521,102.004,91.593,106.976,94.209z"/>
</svg>
