<?xml version="1.0" encoding="utf-8"?>
<!-- Generator: Adobe Illustrator 16.0.3, SVG Export Plug-In . SVG Version: 6.00 Build 0)  -->
<!DOCTYPE svg PUBLIC "-//W3C//DTD SVG 1.1//EN" "http://www.w3.org/Graphics/SVG/1.1/DTD/svg11.dtd">
<svg version="1.1" id="Layer_1" xmlns="http://www.w3.org/2000/svg" xmlns:xlink="http://www.w3.org/1999/xlink" x="0px" y="0px"
	 width="200px" height="200px" viewBox="0 0 200 200" enable-background="new 0 0 200 200" xml:space="preserve">
<g>
	<path fill-rule="evenodd" clip-rule="evenodd" fill="#ED1C24" d="M102.539,197.277c-4.148,0-8.295,0-12.442,0
		c-3.264-0.478-6.549-0.841-9.788-1.451c-37.038-6.992-65.964-35.438-73.558-72.381c-0.898-4.377-1.399-8.836-2.085-13.258
		c0-4.285,0-8.57,0-12.856c0.399-2.86,0.773-5.725,1.201-8.582c5.673-37.805,34.491-68.546,71.808-76.511
		c4.096-0.875,8.279-1.341,12.422-1.997c4.147,0,8.294,0,12.442,0c3.263,0.478,6.549,0.84,9.787,1.452
		c37.037,6.992,65.964,35.437,73.558,72.381c0.899,4.377,1.399,8.836,2.085,13.257c0,4.286,0,8.571,0,12.856
		c-0.399,2.861-0.772,5.726-1.201,8.582c-5.673,37.805-34.49,68.547-71.808,76.512C110.863,196.155,106.681,196.621,102.539,197.277
		z"/>
</g>
<g>
	<path fill-rule="evenodd" clip-rule="evenodd" fill="#FFF200" d="M113.794,191.748c-1.282-0.776-2.62-1.478-3.837-2.349
		c-2.032-1.454-4.108-2.886-5.941-4.57c-2.008-1.847-3.652-4.089-5.648-5.95c-6.089-5.681-10.106-12.749-14.218-19.877
		c-4.571-7.925-7.883-16.166-9.708-25.12c-1.339-6.568-3.199-13.03-4.819-19.541c-0.127-0.511-0.257-1.037-0.272-1.559
		c-0.271-9.739-0.654-19.478-0.703-29.217c-0.016-3.082,0.856-6.17,1.382-9.246c0.05-0.294,0.495-0.616,0.828-0.754
		c3.186-1.325,6.368-2.663,9.592-3.887c1.313-0.498,2.079-1.284,2.405-2.638c0.23-0.95,0.628-1.859,1.074-3.139
		c7.096,3.863,14.019,7.562,20.874,11.381c6.863,3.824,13.715,7.677,20.461,11.703c2.719,1.622,5.196,3.67,7.68,5.655
		c1.663,1.331,3.087,2.955,4.714,4.334c6.611,5.604,11.729,12.389,16.809,19.396c6.941,9.574,11.085,20.201,14.627,31.238
		c0.704,2.192,1.576,4.33,2.371,6.494c0,0.133,0,0.267,0,0.4c-3.526,4.479-6.69,9.182-11.102,13.007
		c-11.859,10.28-24.772,18.501-40.116,22.494c-1.906,0.495-3.769,1.158-5.652,1.744
		C114.327,191.748,114.062,191.748,113.794,191.748z"/>
	<path fill-rule="evenodd" clip-rule="evenodd" fill="#FFF200" d="M6.464,100.838c0.796-4.016,1.735-8.008,2.363-12.05
		c1.287-8.292,3.085-16.477,6.007-24.32c1.381-3.708,3.528-7.091,7.289-9.384c4.517-2.753,9.545-3.04,14.418-3.847
		c4.906-0.812,9.886,0.157,15.127,1.045c-0.588,1.094-1.161,1.84-1.404,2.679c-0.392,1.357-0.847,2.795-0.752,4.163
		c0.086,1.221-0.2,1.912-1.041,2.731c-6.833,6.65-13.628,13.338-20.381,20.07c-0.875,0.873-1.44,2.057-2.14,3.104
		c-6.049,9.047-9.92,18.991-12.764,29.467c-1.301,4.792-0.981,9.478-0.944,14.244c0.008,1.13,0.122,2.26,0.027,3.429
		c-1.726-5.081-3.879-10.006-4.253-15.496c-0.316-4.625-1.02-9.224-1.551-13.834C6.464,102.172,6.464,101.505,6.464,100.838z"/>
	<path fill-rule="evenodd" clip-rule="evenodd" fill="#FFF200" d="M93.369,12.73c1.386,0.113,2.782,0.396,4.155,0.31
		c6.867-0.431,13.521,0.753,20.054,2.65c7.382,2.143,14.705,4.491,22.05,6.763c0.438,0.135,0.883,0.327,1.257,0.589
		c7.515,5.27,15.055,10.512,21.894,17.571c-1.967-1.065-3.407-1.956-4.936-2.654c-8.063-3.682-16.466-5.74-25.398-5.908
		c-10.68-0.201-21.319-0.209-31.76,2.355c-2.681,0.659-5.236,1.865-7.811,2.917c-2.825,1.153-5.605,2.417-8.397,3.629
		c-2.018-3.605-4.001-4.726-9.598-5.145c0.807-1.107,1.498-2.136,2.269-3.103c4.148-5.197,6.595-11.124,7.892-17.619
		c0.181-0.904,1.52-1.577,2.323-2.356C89.364,12.73,91.366,12.73,93.369,12.73z"/>
</g>
<ellipse transform="matrix(0.8485 0.5291 -0.5291 0.8485 39.3785 -28.0462)" fill-rule="evenodd" clip-rule="evenodd" fill="#FFF200" cx="68.678" cy="54.76" rx="9.54" ry="12.166"/>
</svg>
