<?xml version="1.0" encoding="utf-8"?>
<!-- Generator: Adobe Illustrator 16.0.3, SVG Export Plug-In . SVG Version: 6.00 Build 0)  -->
<!DOCTYPE svg PUBLIC "-//W3C//DTD SVG 1.1//EN" "http://www.w3.org/Graphics/SVG/1.1/DTD/svg11.dtd">
<svg version="1.1" id="Layer_1" xmlns="http://www.w3.org/2000/svg" xmlns:xlink="http://www.w3.org/1999/xlink" x="0px" y="0px"
	 width="200px" height="200px" viewBox="0 0 200 200" enable-background="new 0 0 200 200" xml:space="preserve">
<g>
	<path fill-rule="evenodd" clip-rule="evenodd" fill="#FBB040" d="M133.795,107.595c1.828,0,3.657,0,5.485,0
		c3.019,6.662-0.003,17.438-7.285,23.941c-3.853,3.44-5.332,7.453-5.869,12.38c-1.58,14.479-3.367,28.939-5.243,43.386
		c-0.849,6.533-5.968,11.448-12.351,12.399c-11.562,1.722-19.362-4.063-20.822-15.89c-1.674-13.561-2.889-27.18-4.556-40.742
		c-0.417-3.393-0.184-7.048-4.203-9.394c-6.505-3.796-10.098-9.659-10.139-17.539c-0.012-2.119-1.258-4.232-1.938-6.348
		c0-0.366,0-0.731,0-1.097c6.476,0.509,12.972,1.617,19.425,1.41C102.142,109.59,117.964,108.471,133.795,107.595z"/>
</g>
<g>
	<path fill-rule="evenodd" clip-rule="evenodd" fill="#FCAEB8" d="M108.617,114.373c-2.56,0-5.119,0-7.679,0
		c-5.356-0.726-10.694-1.668-16.073-2.128c-8.022-0.687-15.251-3.399-21.706-8.056c-5.123-3.696-5.085-12.289,0.388-15.31
		c4.734-2.612,5.194-5.402,3.679-10.197c-0.677-2.145,1.41-5.105,2.056-7.741c0.544-2.221,1.775-4.91,1.029-6.69
		c-2.131-5.087-1.388-8.778,3.382-11.595c3.482-2.057,5.145-4.39,3.567-8.946c-2.038-5.885,1.471-10.684,7.48-11.684
		c1.571-0.262,3.101-0.769,4.606-1.151c-0.899-3.921-2.133-7.399-2.427-10.955c-0.746-9.034,2.655-19.879,15.437-18.525
		c6.414,0.679,12.788,1.748,19.258,2.651c0,1.694,0,3.229,0,5.714c-2.008-1.143-3.278-2.34-4.698-2.559
		c-1.979-0.305-4.392-0.451-5.994,0.449c-0.962,0.541-1.47,3.568-0.847,4.811c0.72,1.439,2.78,2.634,4.479,3.059
		c2.795,0.7,5.786,0.583,8.664,1.007c9.438,1.394,13.771,10.258,8.832,18.346c2.827,1.748,7.095,1.993,6.461,7.237
		c-0.518,4.271-1.45,9.263,4.484,11.283c0.427,0.145,0.723,1.272,0.734,1.948c0.067,3.946,0.033,7.895,0.033,10.994
		c1.583,4.12,5.056,8.593,4.002,11.313c-2.681,6.927,1.549,10.426,4.736,14.784c0,0.366,0,0.732,0,1.098
		c-0.715,2.023-1.524,4.02-2.126,6.077c-2.647,9.051-4.849,10.73-14.386,11.662C126.851,112.16,117.74,113.328,108.617,114.373z"/>
</g>
<path fill-rule="evenodd" clip-rule="evenodd" fill="#EF8B06" d="M130.976,117.616c-1.521,0-3.043,0-4.564,0
	c-3.989,0.221-7.979,0.46-11.968,0.697c0.056,0.779,0.085,1.569,0.085,2.369c0,8.014-2.856,15.082-7.202,19.274
	c0.623,4.864,0.962,10.017,0.962,15.357c0,15.464-2.812,29.383-7.299,39.127c1.384,0.09,2.848,0.039,4.403-0.193
	c5.311-0.791,9.57-4.88,10.276-10.315c1.561-12.02,3.048-24.051,4.362-36.098c0.446-4.099,1.678-7.438,4.883-10.3
	C130.973,132.125,133.486,123.159,130.976,117.616z"/>
<g>
	<path fill-rule="evenodd" clip-rule="evenodd" fill="#FF788F" d="M67.512,91.07c2.084-0.529,4.168-1.06,7.448-1.893
		c-9.033,13.399,5.61,10.513,8.122,16.637c-5.19-2.36-10.381-4.718-15.57-7.077C67.512,96.182,67.512,93.626,67.512,91.07z"/>
	<path fill-rule="evenodd" clip-rule="evenodd" fill="#FF788F" d="M120.207,71.027c4.458-3.13,8.916-6.26,14.871-10.44
		c-3.862-1.215-5.649-1.778-7.846-2.469c1.546-1.121,2.773-2.685,4.212-2.911c2.709-0.426,5.538-0.08,8.317-0.055
		c-0.67,2.622-0.899,5.465-2.093,7.823C134.128,69.975,126.871,69.904,120.207,71.027z"/>
</g>
<g>
	<path fill-rule="evenodd" clip-rule="evenodd" fill="#FFE9EE" d="M117.559,24.198c-1.468,1.327-2.936,2.656-5.244,4.746
		c1.58-14.79-9.09-6.137-13.77-10.038c5.239-0.315,10.477-0.632,15.713-0.946C115.357,20.04,116.458,22.119,117.559,24.198z"/>
	<path fill-rule="evenodd" clip-rule="evenodd" fill="#FFE9EE" d="M83.318,63.189c-2.278,4.465-4.558,8.931-7.603,14.896
		c3.666-0.674,5.362-0.985,7.446-1.368c-0.775,1.577-1.101,3.378-2.174,4.181c-2.02,1.513-4.47,2.449-6.743,3.625
		c-0.583-2.42-1.621-4.833-1.666-7.264C72.447,70.039,78.38,66.972,83.318,63.189z"/>
</g>
</svg>
