<?xml version="1.0" encoding="utf-8"?>
<!-- Generator: Adobe Illustrator 16.0.3, SVG Export Plug-In . SVG Version: 6.00 Build 0)  -->
<!DOCTYPE svg PUBLIC "-//W3C//DTD SVG 1.1//EN" "http://www.w3.org/Graphics/SVG/1.1/DTD/svg11.dtd">
<svg version="1.1" id="Layer_1" xmlns="http://www.w3.org/2000/svg" xmlns:xlink="http://www.w3.org/1999/xlink" x="0px" y="0px"
	 width="200px" height="200px" viewBox="0 0 200 200" enable-background="new 0 0 200 200" xml:space="preserve">
<rect x="64.75" y="88" fill-rule="evenodd" clip-rule="evenodd" fill="#FCEF75" width="75.5" height="98.5"/>
<g>
	<path fill-rule="evenodd" clip-rule="evenodd" fill="#EE2A7B" d="M105.852,170.833C94.021,123.925,82.185,77.017,70.363,30.106
		c-3.35-13.296-3.329-13.294-16.599-10.428c-9.072,1.959-18.148,3.896-27.561,5.914c-0.886-3.003-1.673-5.669-2.561-8.676
		c1.199-0.465,2.181-1,3.229-1.23c13.156-2.879,26.315-5.745,39.488-8.549c5.696-1.213,9.064,0.735,10.446,6.226
		c12.865,51.117,25.68,102.247,38.499,153.375c0.159,0.633,0.181,1.299,0.289,2.139c-2.307,0.847-4.549,1.67-6.791,2.492
		C107.819,171.189,106.836,171.012,105.852,170.833z"/>
</g>
<rect x="71" y="94.75" fill-rule="evenodd" clip-rule="evenodd" fill="#FFCD40" width="11.25" height="96"/>
<circle fill-rule="evenodd" clip-rule="evenodd" fill="#FFDF8F" stroke="#FFF200" stroke-width="6" stroke-miterlimit="10" cx="147.125" cy="45.375" r="30.125"/>
<g>
	<path fill-rule="evenodd" clip-rule="evenodd" fill="#FFF200" stroke="#FFF200" stroke-miterlimit="10" d="M139.26,67.914
		c-0.229-1.709-0.4-3.399,0.093-4.864c1.479-4.385,3.92-8.444,5.963-12.639c0.52,0.119,1.04,0.238,1.561,0.357
		c0.46,5.108,0.919,10.218,1.377,15.328c-0.352,1.227-0.703,2.455-1.056,3.683c-0.291,1.016-2.635,2.54-3.516,2.287
		C142.319,71.675,139.394,68.915,139.26,67.914z"/>
	<path fill-rule="evenodd" clip-rule="evenodd" fill="#FFF200" stroke="#FFF200" stroke-miterlimit="10" d="M144.012,48.236
		c-3.157,3.388-5.985,7.185-9.556,10.06c-3.782,3.048-5.749,3.001-8.11-0.074c-0.417-0.54-0.084-3.497,0.381-3.82
		c1.987-1.384,3.95-2.809,6.054-3.985c1.744-0.975,3.615-1.72,5.479-2.483C138.898,47.672,142.73,47.87,144.012,48.236z"/>
</g>
<g>
	<path fill-rule="evenodd" clip-rule="evenodd" fill="#FFF200" stroke="#FFF200" stroke-miterlimit="10" d="M123.787,41.396
		c1.662-0.458,3.314-0.855,4.832-0.564c4.545,0.874,8.896,2.743,13.328,4.202c-0.047,0.53-0.095,1.063-0.143,1.594
		c-5,1.146-10,2.29-15.002,3.435c-1.263-0.184-2.527-0.365-3.791-0.549c-1.047-0.151-2.873-2.269-2.741-3.175
		C120.474,44.937,122.813,41.665,123.787,41.396z"/>
	<path fill-rule="evenodd" clip-rule="evenodd" fill="#FFF200" stroke="#FFF200" stroke-miterlimit="10" d="M143.926,43.448
		c-3.783-2.671-7.928-4.96-11.258-8.11c-3.531-3.336-3.75-5.291-1.021-8.045c0.479-0.487,3.453-0.556,3.836-0.14
		c1.641,1.783,3.316,3.535,4.766,5.461c1.202,1.597,2.193,3.35,3.201,5.093C143.795,38.306,144.116,42.129,143.926,43.448z"/>
</g>
<g>
	<g>
		<path fill="#FFFFFF" d="M139.378,53.354c-0.013,7.734-0.025,15.468-0.038,23.203c-0.051,33.179-0.104,67.487-0.256,101.226
			c-0.021,4.913-1.211,7.281-7.906,7.455c-3.534,0.092-7.363,0.135-12.051,0.135c-2.902,0-5.807-0.016-8.711-0.032
			c-2.932-0.016-5.864-0.031-8.795-0.031c-5.503,0-12.765,0.05-20.131,0.437c-0.558,0.029-1.109,0.044-1.638,0.044
			c-6.036,0-10.153-1.797-13.708-6.107V53.354H139.378 M147.133,45.354c-29.663,0-59.326,0-88.988,0c0,45.862,0,91.423,0,136.982
			c5.355,7.807,12.248,11.453,21.708,11.453c0.672,0,1.358-0.018,2.057-0.055c6.561-0.345,13.133-0.426,19.712-0.426
			c5.833,0,11.671,0.063,17.506,0.063c4.088,0,8.176-0.031,12.26-0.138c9.957-0.258,15.651-5.176,15.697-15.416
			c0.193-43.16,0.226-86.32,0.303-129.48C147.389,47.343,147.222,46.349,147.133,45.354L147.133,45.354z"/>
	</g>
</g>
<rect x="71.5" y="88" fill-rule="evenodd" clip-rule="evenodd" fill="#FCEF75" width="45.5" height="7"/>
<g>
	<path fill-rule="evenodd" clip-rule="evenodd" fill="#FFF200" stroke="#FFF200" stroke-miterlimit="10" d="M149.477,23.939
		c0.691,1.58,1.322,3.157,1.252,4.702c-0.213,4.623-1.441,9.197-2.248,13.792c-0.533,0.029-1.066,0.058-1.6,0.086
		c-1.85-4.784-3.699-9.569-5.548-14.354c0-1.277,0-2.555,0-3.832c0-1.056,1.833-3.167,2.749-3.167
		C145.499,21.167,149.072,23.014,149.477,23.939z"/>
	<path fill-rule="evenodd" clip-rule="evenodd" fill="#FFF200" stroke="#FFF200" stroke-miterlimit="10" d="M150.332,44.164
		c2.102-4.127,3.773-8.556,6.412-12.304c2.797-3.971,4.701-4.468,7.818-2.164c0.549,0.405,1.044,3.338,0.687,3.777
		c-1.528,1.878-3.023,3.789-4.721,5.499c-1.408,1.418-3.003,2.65-4.583,3.897C155.403,43.296,151.665,44.164,150.332,44.164z"/>
</g>
<g>
	<path fill-rule="evenodd" clip-rule="evenodd" fill="#FFF200" stroke="#FFF200" stroke-miterlimit="10" d="M170.377,51.36
		c-1.615,0.602-3.227,1.143-4.764,0.985c-4.604-0.472-9.104-1.955-13.645-3.019c0-0.534,0.002-1.067,0.002-1.602
		c4.881-1.578,9.762-3.156,14.645-4.734c1.273,0.072,2.549,0.144,3.824,0.215c1.055,0.059,3.061,2.008,3.008,2.923
		C173.369,47.544,171.324,51.008,170.377,51.36z"/>
	<path fill-rule="evenodd" clip-rule="evenodd" fill="#FFF200" stroke="#FFF200" stroke-miterlimit="10" d="M150.137,51.079
		c4.002,2.33,8.33,4.248,11.924,7.094c3.809,3.014,4.199,4.943,1.723,7.927c-0.436,0.525-3.393,0.855-3.811,0.473
		c-1.789-1.631-3.613-3.231-5.225-5.022c-1.338-1.485-2.479-3.146-3.635-4.794C150.717,56.191,150.063,52.41,150.137,51.079z"/>
</g>
</svg>
