<?xml version="1.0" encoding="utf-8"?>
<!-- Generator: Adobe Illustrator 16.0.3, SVG Export Plug-In . SVG Version: 6.00 Build 0)  -->
<!DOCTYPE svg PUBLIC "-//W3C//DTD SVG 1.1//EN" "http://www.w3.org/Graphics/SVG/1.1/DTD/svg11.dtd">
<svg version="1.1" id="Layer_1" xmlns="http://www.w3.org/2000/svg" xmlns:xlink="http://www.w3.org/1999/xlink" x="0px" y="0px"
	 width="200px" height="200px" viewBox="0 0 200 200" enable-background="new 0 0 200 200" xml:space="preserve">
<g>
	<path fill-rule="evenodd" clip-rule="evenodd" fill="#8DC63F" d="M121.343,5.688c0.569,0.411,1.088,1.065,1.716,1.197
		c6.644,1.394,11.966,5.097,16.781,9.616c2.255,2.116,3.584,4.927,4.442,7.853c1.141,3.888,2.017,7.852,0.761,11.923
		c-0.521,1.695-1.021,3.397-1.53,5.096c-0.223,0.077-0.447,0.153-0.67,0.23c-0.08-0.249-0.188-0.491-0.235-0.746
		c-0.774-4.29-3.248-7.654-5.918-10.915c-3.475-4.244-7.489-7.964-12.037-10.956c-5.756-3.787-11.882-6.938-18.749-8.324
		c-1.819-0.368-1.997-0.536-2.688-2.328c1.185-0.323,2.344-0.649,3.507-0.954c1.052-0.275,2.125-0.477,3.152-0.821
		c0.346-0.116,0.577-0.57,0.861-0.87C114.271,5.688,117.807,5.688,121.343,5.688z"/>
	<path fill-rule="evenodd" clip-rule="evenodd" fill="#8DC63F" d="M195.9,56.849c-0.42,0.336-0.839,0.672-1.371,1.098
		c-5.668-6.39-12.466-11.262-20.875-13.54c-8.157-2.21-16.41-3.439-24.857-1.353c-0.102-0.17-0.202-0.34-0.303-0.51
		c0.797-0.863,1.492-1.855,2.406-2.568c7.162-5.582,15.357-8.109,24.296-6.741c7.647,1.172,13.667,5.32,17.099,12.527
		c1.374,2.886,2.414,5.931,3.605,8.903C195.9,55.393,195.9,56.122,195.9,56.849z"/>
	<path fill-rule="evenodd" clip-rule="evenodd" fill="#B3EA2D" d="M2,84.814c1.171-2.1,1.953-4.599,3.602-6.211
		c2.788-2.728,5.715-5.541,9.782-6.436c5.878-1.293,11.369,0.482,16.802,2.319c1.411,0.477,2.573,1.689,3.849,2.563
		c0.006,0.165,0.011,0.328,0.018,0.493c-0.659,0.176-1.334,0.554-1.973,0.498c-4.762-0.416-9.414,0.067-13.982,1.46
		c-0.586,0.18-1.213,0.232-1.825,0.324c-1.789,0.267-3.405,0.366-5.013,1.833c-2.236,2.042-5.109,3.44-7.846,4.849
		C4.489,86.983,3.149,86.65,2,86.687C2,86.062,2,85.438,2,84.814z"/>
	<path fill-rule="evenodd" clip-rule="evenodd" fill="#D17715" d="M135.802,52.842c-1.148,1.669-2.21,3.365-3.422,4.945
		c-2.979,3.881-5.009,8.298-7.292,12.577c-4.131,7.746-7.269,15.907-9.838,24.271c-1.802,5.869-3.481,11.802-4.745,17.804
		c-1.812,8.604-3.315,17.28-4.717,25.963c-0.958,5.935-1.668,11.92-2.207,17.907c-0.521,5.785,2.319,23.601,2.009,29.403
		c-0.034,0.622-0.046,1.247-0.025,1.87c0.136,4.097-1.277,4.769-5.009,5.277c-1.981,0.271-4.038-0.039-6.059-0.029
		c-1.278,0.006-2.556,0.171-3.833,0.167c-1.952-0.008-3.146-1.064-3.091-3.049c0.055-1.954,0.354-3.922,0.739-5.846
		c1.923-9.635,0.756-31.293,2.923-40.876c1.55-6.857,3.451-13.645,5.435-20.394c1.412-4.807,3.175-9.515,4.876-14.233
		c0.723-2.006,1.734-3.903,2.532-5.884c1.248-3.099,2.256-6.306,3.667-9.325c3.189-6.828,6.206-13.776,9.96-20.29
		c4.1-7.112,8.774-13.925,14.827-19.628C134.021,52.072,134.006,52.055,135.802,52.842z"/>
	<path fill-rule="evenodd" clip-rule="evenodd" fill="#DCE83D" d="M148.378,46.658c4.004-0.956,7.513-1.522,11.116-1.346
		c5.037,0.247,9.996,1.265,14.271,3.844c6.13,3.699,10.269,9.23,12.918,15.962c2.894,7.353,2.991,14.866,1.972,22.508
		c-0.156,1.17-0.528,2.328-0.928,3.445c-2.264,6.306-4.768,12.483-9.535,17.427c-1.113,1.151-2.104,2.423-3.248,3.542
		c-0.796,0.777-1.557,0.604-1.733-0.581c-0.223-1.481-0.489-2.986-0.444-4.473c0.326-10.596-1.428-20.838-4.788-30.873
		c-2.555-7.627-6.112-14.687-11.246-20.875c-1.773-2.139-3.992-3.905-5.975-5.875C150.016,48.626,149.368,47.792,148.378,46.658z"/>
	<path fill-rule="evenodd" clip-rule="evenodd" fill="#F7941E" d="M43.837,84.759c0.563,0.394,1.181,0.729,1.68,1.19
		c4.438,4.104,8.277,8.698,11.531,13.81c5.168,8.116,9.187,16.797,12.613,25.742c2.459,6.42,2.546,16.987,4.652,23.535
		c1.392,4.324,2.732,8.686,3.729,13.112c1.702,7.568,1.145,15.194,2.632,22.81c0.437,2.232,0.641,4.511,0.979,6.765
		c0.146,0.971-0.228,1.291-1.191,1.276c-3.584-0.051-7.17-0.072-10.755-0.039c-1.254,0.013-1.756-0.473-1.824-1.727
		c-0.256-4.769-0.444-9.546-0.919-14.295c-0.697-6.964,0.523-13.926-0.484-20.851c-0.899-6.194,0.061-16.385-1.316-22.486
		c-1.217-5.39-2.802-10.716-4.568-15.954c-1.629-4.834-3.46-9.634-5.659-14.231c-2.945-6.159-6.129-12.232-10.727-17.403
		c-0.252-0.284-0.416-0.647-0.621-0.974C43.672,84.946,43.754,84.852,43.837,84.759z"/>
	<path fill-rule="evenodd" clip-rule="evenodd" fill="#8DC63F" d="M36.217,81.879c-0.939,1.19-1.638,2.42-2.645,3.293
		c-5.238,4.542-8.386,10.41-11.029,16.672c-3.805,9.016-5.13,18.432-4.911,28.135c0.011,0.52,0.131,1.065,0.009,1.551
		c-0.13,0.521-0.388,1.271-0.769,1.402c-0.425,0.146-1.172-0.149-1.572-0.493c-3.571-3.073-5.866-7.025-7.757-11.278
		c-3.16-7.106-3.595-14.451-1.808-21.908c1.365-5.693,4.458-10.235,9.259-13.841c6.263-4.703,13.057-5.277,20.351-3.847
		C35.539,81.603,35.721,81.698,36.217,81.879z"/>
	<path fill-rule="evenodd" clip-rule="evenodd" fill="#B3EA2D" d="M135.474,41.983c-9.989-2.92-19.605-2.636-28.685,2.941
		c-9.134,5.609-13.222,14.327-14.956,24.547c-0.189-0.026-0.378-0.052-0.566-0.078c-0.469-1.262-0.968-2.514-1.401-3.788
		c-1.887-5.553-1.958-11.18,0.264-16.569c1.651-4.006,3.295-8.104,6.824-11.081c7.359-6.208,15.597-8.521,24.872-5.561
		c3.303,1.054,6.377,2.892,9.451,4.565c1.424,0.774,2.639,1.963,3.856,3.066c0.381,0.344,0.459,1.023,0.676,1.549
		C135.698,41.711,135.586,41.848,135.474,41.983z"/>
	<path fill-rule="evenodd" clip-rule="evenodd" fill="#8DC63F" d="M80.74,96.689c-0.595-0.583-1.285-1.1-1.76-1.769
		c-0.592-0.834-1.217-1.741-1.46-2.708c-1.004-3.997-3.557-6.789-6.748-9.141c-0.373-0.275-0.821-0.552-1.025-0.938
		c-1.256-2.396-3.722-2.868-5.915-3.639c-5.412-1.904-10.954-1.938-16.534-0.761c-0.36,0.076-0.76-0.035-1.141-0.06
		c0.113-0.418,0.117-0.917,0.357-1.244c1.387-1.887,3.467-2.68,5.576-3.418c0.583-0.204,1.182-0.398,1.716-0.699
		c3.737-2.104,7.803-2.753,11.871-1.762c3.167,0.771,6.314,1.991,8.659,4.569c1.146,1.26,2.594,2.268,3.629,3.604
		c3.16,4.085,4.179,8.79,3.634,13.881c-0.136,1.268-0.197,2.542-0.292,3.813C81.117,96.51,80.928,96.6,80.74,96.689z"/>
	<path fill-rule="evenodd" clip-rule="evenodd" fill="#8DC63F" d="M144.855,51.669c0.667,0.408,1.072,0.52,1.246,0.783
		c3.805,5.791,6.929,11.853,6.918,19.014c-0.003,2.346-0.232,4.697-0.473,7.035c-0.23,2.235-1.225,4.11-2.938,5.625
		c-0.553,0.488-0.948,1.192-1.309,1.856c-1.039,1.923-2.716,2.975-4.767,3.39c-0.347,0.07-1.189-0.669-1.243-1.104
		c-0.163-1.324-0.163-2.692-0.03-4.024c0.541-5.404,1.286-10.791,1.704-16.204c0.351-4.543,0.34-9.114,0.519-13.671
		C144.515,53.572,144.697,52.783,144.855,51.669z"/>
	<path fill-rule="evenodd" clip-rule="evenodd" fill="#DCE83D" d="M38.115,69.51c0.411-1.849,0.488-3.572,1.174-5.005
		c1.477-3.083,3.099-6.301,6.037-8.146c2.46-1.546,4.631-3.945,7.922-3.913c0.297,0.003,0.636-0.106,0.888-0.269
		c3.389-2.189,7.021-1.193,10.604-0.827c0.932,0.095,1.793,0.333,1.783,1.519c-0.01,1.085-0.615,1.864-1.649,1.939
		c-3.551,0.257-6.328,2.481-9.516,3.649c-0.874,0.321-1.568,1.14-2.34,1.737c-0.573,0.443-1.073,1.072-1.719,1.308
		c-1.421,0.52-2.617,1.028-2.909,2.81c-0.094,0.572-1.229,0.904-1.696,1.498c-1.567,1.989-3.025,4.065-4.576,6.067
		c-0.431,0.557-0.975,1.202-1.591,1.386c-0.5,0.148-1.568-0.184-1.72-0.567C38.375,71.609,38.284,70.39,38.115,69.51z"/>
	<path fill-rule="evenodd" clip-rule="evenodd" fill="#B3EA2D" d="M39.221,92.951c0.795,6.987,1.604,13.974,2.362,20.965
		c0.065,0.598-0.008,1.507-0.377,1.775c-0.401,0.29-1.346,0.215-1.843-0.069c-3.464-1.981-5.633-5.004-6.458-8.88
		c-1.361-6.401,0.709-12.14,3.656-17.682c0.45-0.845,1.121-1.387,1.971-1.013c0.409,0.18,0.633,1.035,0.729,1.618
		c0.175,1.071,0.193,2.167,0.277,3.252C39.433,92.93,39.327,92.94,39.221,92.951z"/>
	<path fill-rule="evenodd" clip-rule="evenodd" fill="#B3EA2D" d="M149.419,35.092c0-3.56,0.033-6.812-0.013-10.063
		c-0.027-1.959,0.081-3.975-0.348-5.856c-0.419-1.833-1.435-3.532-2.208-5.282c-0.334-0.757-0.82-1.463-1.046-2.248
		c-0.164-0.573-0.014-1.235-0.004-1.857c0.668,0.053,1.492-0.123,1.975,0.204c1.192,0.808,2.582,1.645,3.255,2.832
		c1.517,2.672,3.772,4.75,3.969,8.44c0.216,4.057-1.053,7.384-2.391,10.867C152.105,33.439,151.309,34.665,149.419,35.092z"/>
</g>
</svg>
