<?xml version="1.0" encoding="utf-8"?>
<!-- Generator: Adobe Illustrator 16.0.3, SVG Export Plug-In . SVG Version: 6.00 Build 0)  -->
<!DOCTYPE svg PUBLIC "-//W3C//DTD SVG 1.1//EN" "http://www.w3.org/Graphics/SVG/1.1/DTD/svg11.dtd">
<svg version="1.1" id="Layer_1" xmlns="http://www.w3.org/2000/svg" xmlns:xlink="http://www.w3.org/1999/xlink" x="0px" y="0px"
	 width="200px" height="200px" viewBox="0 0 200 200" enable-background="new 0 0 200 200" xml:space="preserve">
<path fill-rule="evenodd" clip-rule="evenodd" fill="#C48300" d="M97.455,196.799c-0.221,2.013-2.756,3.387-5.662,3.068l0,0
	c-2.906-0.319-5.082-2.211-4.861-4.225l13.199-120.191c0.221-2.014,2.756-3.388,5.662-3.068l0,0c2.905,0.319,5.082,2.21,4.86,4.224
	L97.455,196.799z"/>
<g>
	<g>
		<path fill-rule="evenodd" clip-rule="evenodd" fill="#2BB673" d="M106.605,73.597c7.961-8.456,15.565-16.707,23.457-24.669
			c0.89-0.899,4.067-0.957,5.07-0.1c10.851,9.263,21.598,18.659,32.045,28.371c1.701,1.581,2.137,4.816,2.61,7.387
			c2.964,16.036,5.797,32.098,8.598,48.163c0.356,2.055,0.256,4.189,0.367,6.286c-0.49,0.18-0.98,0.359-1.471,0.543
			C154.034,117.874,130.786,96.171,106.605,73.597z"/>
		<path fill-rule="evenodd" clip-rule="evenodd" fill="#2BB673" d="M106.593,73.363c7.962-8.457,15.565-16.707,23.456-24.669
			c0.891-0.898,4.068-0.958,5.071-0.101c10.85,9.263,21.597,18.661,32.046,28.372c1.701,1.582,2.134,4.815,2.61,7.387
			c2.962,16.034,5.796,32.095,8.594,48.165c0.358,2.052,0.258,4.187,0.371,6.281c-0.491,0.184-0.982,0.365-1.473,0.545
			C154.021,117.639,130.772,95.938,106.593,73.363z"/>
	</g>
	<g>
		<path fill-rule="evenodd" clip-rule="evenodd" fill="#21F48A" d="M107.501,75.118c7.962-8.458,61.344,4.494,61.631,5.062
			c0.861,1.697,1.193,3.998,1.552,5.927c2.962,16.035,5.796,32.095,8.596,48.161c0.356,2.057,0.256,4.189,0.368,6.287
			c-0.49,0.18-0.98,0.359-1.473,0.541C154.929,119.394,131.682,97.692,107.501,75.118z"/>
	</g>
</g>
<g>
	<g>
		<path fill-rule="evenodd" clip-rule="evenodd" fill="#2BB673" d="M106.352,73.372c8.488,7.925,16.77,15.495,24.765,23.355
			c0.902,0.887,0.974,4.062,0.121,5.069c-9.221,10.891-18.571,21.675-28.24,32.16c-1.575,1.709-4.808,2.155-7.374,2.641
			c-16.026,3.03-32.076,5.931-48.13,8.797c-2.053,0.361-4.187,0.271-6.281,0.394c-0.184-0.492-0.366-0.982-0.549-1.471
			C62.269,120.979,83.874,97.644,106.352,73.372z"/>
		<path fill-rule="evenodd" clip-rule="evenodd" fill="#2BB673" d="M106.585,73.356c8.489,7.927,16.771,15.497,24.766,23.355
			c0.901,0.885,0.975,4.064,0.121,5.071c-9.219,10.888-18.573,21.673-28.239,32.161c-1.576,1.707-4.807,2.152-7.377,2.639
			c-16.023,3.028-32.073,5.931-48.127,8.794c-2.051,0.367-4.188,0.275-6.284,0.395c-0.183-0.488-0.366-0.98-0.549-1.467
			C62.502,120.969,84.109,97.629,106.585,73.356z"/>
	</g>
	<g>
		<path fill-rule="evenodd" clip-rule="evenodd" fill="#21F48A" d="M104.834,74.272c8.49,7.926-4.242,61.359-4.808,61.65
			c-1.695,0.869-3.995,1.21-5.919,1.575c-16.027,3.029-32.074,5.928-48.131,8.793c-2.049,0.367-4.187,0.275-6.282,0.397
			c-0.183-0.491-0.365-0.983-0.548-1.474C60.753,121.881,82.359,98.545,104.834,74.272z"/>
	</g>
</g>
<g>
	<g>
		<path fill-rule="evenodd" clip-rule="evenodd" fill="#2BB673" d="M106.402,74.333c8.488,7.927,16.771,15.495,24.766,23.357
			c0.901,0.884,0.973,4.061,0.12,5.068c-9.218,10.888-18.57,21.674-28.24,32.161c-1.575,1.709-4.806,2.156-7.374,2.64
			c-16.026,3.028-32.076,5.929-48.13,8.794c-2.052,0.365-4.187,0.274-6.281,0.394c-0.183-0.488-0.367-0.979-0.549-1.467
			C62.321,121.942,83.926,98.605,106.402,74.333z"/>
		<path fill-rule="evenodd" clip-rule="evenodd" fill="#00C918" d="M106.637,74.319c8.488,7.928,16.77,15.498,24.765,23.354
			c0.903,0.888,0.975,4.063,0.122,5.073c-9.22,10.887-18.572,21.672-28.239,32.16c-1.576,1.708-4.809,2.154-7.378,2.641
			c-16.023,3.026-32.073,5.926-48.126,8.793c-2.051,0.364-4.188,0.273-6.284,0.395c-0.183-0.487-0.367-0.981-0.549-1.47
			C62.554,121.929,84.16,98.592,106.637,74.319z"/>
	</g>
	<g>
		<path fill-rule="evenodd" clip-rule="evenodd" fill="#00FF1E" d="M104.886,75.234c8.489,7.928-4.242,61.361-4.808,61.65
			c-1.696,0.871-3.995,1.211-5.921,1.577c-16.024,3.026-32.073,5.927-48.129,8.791c-2.048,0.366-4.188,0.277-6.281,0.396
			c-0.184-0.488-0.367-0.979-0.549-1.47C60.804,122.844,82.411,99.508,104.886,75.234z"/>
	</g>
</g>
<g>
	<g>
		<path fill-rule="evenodd" clip-rule="evenodd" fill="#2BB673" d="M105.867,73.406c-7.807,8.6-15.26,16.984-23.009,25.089
			c-0.871,0.915-4.046,1.03-5.066,0.19C66.776,89.62,55.859,80.42,45.237,70.9c-1.727-1.551-2.22-4.777-2.742-7.338
			c-3.252-15.982-6.376-31.988-9.464-48.001c-0.396-2.047-0.334-4.183-0.486-6.277c0.49-0.189,0.977-0.38,1.463-0.569
			C57.643,29.993,81.282,51.271,105.867,73.406z"/>
		<path fill-rule="evenodd" clip-rule="evenodd" fill="#2BB673" d="M105.885,73.639c-7.809,8.599-15.262,16.986-23.007,25.091
			c-0.875,0.911-4.049,1.027-5.067,0.191C66.793,89.854,55.88,80.654,45.255,71.135c-1.729-1.553-2.221-4.778-2.743-7.339
			c-3.251-15.981-6.375-31.986-9.465-48c-0.394-2.046-0.333-4.184-0.484-6.278c0.488-0.189,0.978-0.379,1.463-0.568
			C57.66,30.228,81.3,51.505,105.885,73.639z"/>
	</g>
	<g>
		<path fill-rule="evenodd" clip-rule="evenodd" fill="#21F48A" d="M104.944,71.902c-7.808,8.6-61.414-3.386-61.712-3.945
			c-0.894-1.684-1.268-3.979-1.659-5.899c-3.25-15.98-6.374-31.986-9.462-48c-0.396-2.045-0.334-4.184-0.485-6.277
			c0.486-0.19,0.974-0.379,1.463-0.57C56.723,28.492,80.358,49.769,104.944,71.902z"/>
	</g>
</g>
<g>
	<g>
		<path fill-rule="evenodd" clip-rule="evenodd" fill="#2BB673" d="M106.224,75.158c-8.463-7.955-16.716-15.554-24.684-23.442
			c-0.9-0.888-0.959-4.063-0.101-5.069c9.256-10.857,18.643-21.61,28.348-32.063c1.582-1.701,4.814-2.138,7.384-2.615
			c16.036-2.973,32.095-5.816,48.159-8.627c2.055-0.358,4.189-0.26,6.285-0.373c0.181,0.491,0.362,0.982,0.544,1.473
			C150.472,27.701,128.784,50.964,106.224,75.158z"/>
		<path fill-rule="evenodd" clip-rule="evenodd" fill="#00C918" d="M105.991,75.173c-8.463-7.958-16.719-15.555-24.686-23.441
			c-0.898-0.89-0.959-4.067-0.103-5.071c9.257-10.857,18.646-21.608,28.35-32.063c1.583-1.703,4.815-2.139,7.385-2.615
			c16.038-2.974,32.094-5.817,48.159-8.626c2.055-0.36,4.189-0.261,6.286-0.374c0.18,0.49,0.361,0.983,0.542,1.471
			C150.235,27.714,128.551,50.977,105.991,75.173z"/>
	</g>
	<g>
		<path fill-rule="evenodd" clip-rule="evenodd" fill="#00FF1E" d="M107.743,74.263c-8.462-7.957,4.457-61.346,5.022-61.634
			c1.697-0.864,3.999-1.197,5.926-1.554c16.035-2.974,32.093-5.818,48.159-8.627c2.051-0.359,4.188-0.26,6.283-0.375
			c0.182,0.491,0.364,0.982,0.544,1.472C151.989,26.806,130.302,50.067,107.743,74.263z"/>
	</g>
</g>
<circle fill-rule="evenodd" clip-rule="evenodd" fill="#C600B3" cx="106.376" cy="74.335" r="7.679"/>
</svg>
