<?xml version="1.0" encoding="utf-8"?>
<!-- Generator: Adobe Illustrator 16.0.3, SVG Export Plug-In . SVG Version: 6.00 Build 0)  -->
<!DOCTYPE svg PUBLIC "-//W3C//DTD SVG 1.1//EN" "http://www.w3.org/Graphics/SVG/1.1/DTD/svg11.dtd">
<svg version="1.1" id="Layer_1" xmlns="http://www.w3.org/2000/svg" xmlns:xlink="http://www.w3.org/1999/xlink" x="0px" y="0px"
	 width="200px" height="200px" viewBox="0 0 200 200" enable-background="new 0 0 200 200" xml:space="preserve">
<g>
	<path fill-rule="evenodd" clip-rule="evenodd" fill="#FBB040" d="M186.72,58.852c-1.943-0.54-3.943-0.674-5.938-0.679
		c-1.865-0.003-3.731,0.182-5.594,0.311c-1.813,0.125-3.622,0.271-5.432,0.435c-0.804,0.074-1.601,0.206-2.402,0.322
		c-1.928,0.279-3.852,0.564-5.779,0.844c-0.836,0.122-1.674,0.235-2.513,0.355c-1.847,0.266-3.691,0.542-5.543,0.799
		c-1.294,0.18-2.592,0.353-3.892,0.493c-1.711,0.184-3.427,0.339-5.141,0.497c-1.581,0.145-3.16,0.313-4.744,0.403
		c-1.135,0.063-2.277,0.046-3.415,0.007c-1.457-0.051-2.91-0.155-4.364-0.251c-0.095-0.006-0.167-0.008-0.227,0.007
		c-0.776-0.443-1.823-0.619-2.914-0.415c-0.137,0.026-0.272,0.058-0.403,0.094c-0.068-0.159-0.251-0.329-0.406-0.371
		c-2.185-0.579-4.267-1.372-6.068-2.777c-1.199-0.935-2.189-2.07-3.001-3.35c-0.69-1.09-1.393-2.185-1.955-3.344
		c-0.569-1.173-1.012-2.415-1.438-3.651c-0.528-1.533-1.005-3.086-1.456-4.644c-0.269-0.924-0.468-1.871-0.657-2.816
		c-0.315-1.575-0.642-3.15-0.882-4.738c-0.275-1.823-0.471-3.657-0.687-5.488c-0.182-1.542-0.375-3.084-0.504-4.631
		c-0.103-1.233-0.088-2.477-0.178-3.712c-0.106-1.466-0.101-2.969-0.45-4.38c-0.438-1.771-1.6-3.017-3.531-3.32
		c-0.686,0.128-1.371,0.257-2.056,0.385c-0.728,0.488-1.518,0.907-2.169,1.48c-0.859,0.757-1.728,1.554-2.383,2.483
		c-1.079,1.529-2.044,3.146-2.95,4.786c-0.614,1.113-1.08,2.312-1.544,3.5c-0.571,1.466-1.111,2.948-1.59,4.447
		c-0.372,1.163-0.64,2.36-0.935,3.548c-0.285,1.148-0.537,2.304-0.819,3.452c-0.299,1.224-0.576,2.455-0.938,3.661
		c-0.397,1.326-0.865,2.63-1.329,3.935c-0.694,1.948-1.551,3.821-2.578,5.619c-1.09,1.907-2.317,3.714-3.78,5.357
		c-1.616,1.815-3.428,3.391-5.499,4.673c-1.463,0.906-2.986,1.66-4.591,2.289c-2.119,0.83-4.285,1.474-6.532,1.776
		c-1.682,0.227-3.387,0.296-5.083,0.403c-1.061,0.066-2.125,0.099-3.188,0.094c-0.869-0.004-1.741-0.063-2.607-0.139
		c-2.203-0.195-4.411-0.36-6.604-0.638c-1.864-0.236-3.713-0.594-5.561-0.936c-2.513-0.465-5.021-0.954-7.527-1.46
		c-2.021-0.409-4.032-0.876-6.055-1.283c-1.422-0.286-2.853-0.533-4.286-0.76c-1.355-0.214-2.714-0.426-4.079-0.555
		c-1.885-0.177-3.778-0.203-5.634,0.258c-1.205,0.301-2.342,0.763-2.952,1.965c-0.18,0.355-0.269,0.757-0.399,1.138
		c0.128,0.685,0.257,1.37,0.385,2.055c0.515,0.859,0.946,1.787,1.565,2.563c0.929,1.166,1.96,2.253,3.004,3.32
		c0.853,0.872,1.721,1.753,2.698,2.475c2.277,1.684,4.563,3.37,6.955,4.876c2.819,1.776,5.742,3.389,8.649,5.022
		c1.248,0.702,2.59,1.235,3.845,1.924c1.809,0.994,3.598,2.027,5.355,3.107c1.7,1.044,3.375,2.133,5.015,3.271
		c2.014,1.398,3.807,3.066,5.29,5.015c0.936,1.231,1.741,2.585,2.022,4.154c0.194,1.086,0.441,2.179,0.466,3.272
		c0.022,0.944-0.181,1.905-0.383,2.838c-0.248,1.136-0.538,2.271-0.921,3.367c-0.351,1.004-0.792,1.988-1.296,2.925
		c-1.145,2.134-2.287,4.273-3.552,6.336c-1.855,3.026-3.799,6-5.738,8.977c-2.016,3.094-4.1,6.145-6.099,9.251
		c-1.33,2.066-2.585,4.183-3.833,6.301c-0.883,1.498-1.723,3.024-2.533,4.564c-0.898,1.712-1.582,3.517-1.916,5.421
		c-0.311,1.764-0.054,3.438,1.142,4.867c1.321,1.576,2.996,2.104,5.008,1.745c1.668-0.297,3.275-0.748,4.807-1.482
		c1.465-0.704,2.986-1.295,4.421-2.053c1.862-0.982,3.68-2.055,5.485-3.141c1.501-0.9,2.96-1.87,4.432-2.819
		c1.252-0.81,2.494-1.638,3.746-2.447c1.104-0.716,2.226-1.4,3.321-2.128c1.388-0.922,2.752-1.88,4.135-2.81
		c1.075-0.723,2.167-1.42,3.243-2.141c1.122-0.75,2.227-1.526,3.353-2.271c0.021-0.015,0.043-0.026,0.064-0.041
		c0.271,0.167,0.539,0.233,0.794,0.184c0.492-0.09,0.872-0.598,1.124-1.393c0.2-0.125,0.397-0.252,0.594-0.38
		c1.189-0.779,2.353-1.601,3.549-2.366c0.902-0.578,1.848-1.088,2.761-1.646c1.009-0.621,1.976-1.32,3.014-1.883
		c0.959-0.523,1.966-0.979,2.997-1.339c0.883-0.31,1.822-0.476,2.747-0.647c1.41-0.263,2.835-0.221,4.255-0.068
		c2.471,0.264,4.864,0.85,7.158,1.813c1.405,0.591,2.84,1.131,4.188,1.837c1.946,1.02,3.864,2.11,5.726,3.282
		c2.332,1.466,4.629,2.996,6.878,4.585c2.243,1.586,4.408,3.282,6.607,4.928c1.353,1.013,2.691,2.04,4.063,3.03
		c2.061,1.488,4.116,2.986,6.222,4.406c1.214,0.819,2.53,1.485,3.796,2.229c1.424,0.838,2.957,1.407,4.548,1.819
		c0.5,0.13,1.025,0.156,1.54,0.232c0.799-0.152,1.599-0.302,2.397-0.451c0.343-0.181,0.682-0.38,1.032-0.544
		c1.535-0.711,2.511-1.883,2.928-3.521c0.578-2.275-0.022-4.448-0.65-6.594c-0.395-1.348-0.883-2.679-1.461-3.959
		c-0.789-1.75-1.704-3.445-2.567-5.163c-0.394-0.787-0.77-1.589-1.201-2.355c-0.643-1.144-1.336-2.256-1.991-3.391
		c-0.573-0.993-1.105-2.014-1.688-2.999c-0.525-0.885-1.069-1.759-1.778-2.508c-0.476-1.28-1.068-2.388-1.718-3.247
		c-0.302-0.489-0.604-0.985-0.902-1.48c-0.591-0.979-1.164-1.969-1.763-2.944c-0.625-1.021-1.321-2.002-1.89-3.051
		c-0.569-1.043-1.031-2.145-1.519-3.229c-0.635-1.413-0.941-2.917-1.188-4.434c-0.216-1.32-0.192-2.638-0.068-3.975
		c0.103-1.14,0.346-2.234,0.691-3.294c0.677-0.675,1.053-1.536,0.984-2.413c0.991-2.035,2.356-3.835,3.894-5.472
		c1.837-1.952,3.869-3.699,6.1-5.203c1.621-1.093,3.213-2.236,4.88-3.253c1.439-0.88,2.964-1.624,4.46-2.41
		c1.635-0.861,3.268-1.729,4.925-2.545c1.103-0.542,2.25-0.989,3.371-1.494c1.554-0.701,3.097-1.434,4.656-2.12
		c1.268-0.557,2.56-1.053,3.829-1.598c1.199-0.514,2.385-1.049,3.575-1.585c1.049-0.475,2.113-0.922,3.138-1.452
		c2.697-1.393,5.33-2.89,7.706-4.808c1.316-1.063,2.574-2.167,3.405-3.661c0.287-0.512,0.441-1.097,0.654-1.649
		c-0.093-0.494-0.187-0.989-0.277-1.484C189.344,59.778,188.086,59.23,186.72,58.852z M144.208,129.433
		c0.159,0.164,0.188,0.526,0.093,0.87c-0.135-0.383-0.284-0.75-0.443-1.096C143.982,129.249,144.098,129.322,144.208,129.433z"/>
	<path fill-rule="evenodd" clip-rule="evenodd" fill="#F7941E" d="M182.381,64.097c-0.695-0.291-1.37-0.657-2.088-0.868
		c-0.854-0.25-1.739-0.413-2.619-0.532c-0.726-0.098-1.469-0.09-2.201-0.106c-3.119-0.071-6.184,0.393-9.227,1
		c-0.763,0.152-1.522,0.32-2.282,0.496c-0.643,0.073-1.302,0.164-1.975,0.274c-3.598,0.592-6.727,1.594-8.679,2.676
		c-1.62,0.546-3.241,1.09-4.852,1.663c-1.078,0.384-2.152,0.777-3.224,1.174c-0.284-0.036-0.579-0.033-0.873,0.016
		c-0.706,0.115-1.316,0.467-1.77,0.963c-0.528,0.196-1.058,0.393-1.584,0.589c-1.297,0.478-2.592,0.958-3.884,1.443
		c-0.302,0.016-0.608,0.048-0.919,0.099c-1.496,0.245-2.769,0.857-3.567,1.623c-0.334,0.117-0.657,0.23-0.979,0.342
		c-1.218,0.423-2.437,0.851-3.657,1.261c-0.215,0.072-0.319,0.171-0.319,0.317c-0.584-0.013-1.206,0.028-1.843,0.133
		c-1.123,0.185-2.136,0.536-2.945,0.986c-0.026,0.006-0.053,0.013-0.08,0.021c-2.424,0.664-4.902,0.944-7.406,0.72
		c-2.025-0.18-3.885-0.863-5.435-2.249c-0.019-0.016-0.039-0.03-0.063-0.043c-0.593-1.218-1.369-2.204-2.233-2.851
		c-1.001-1.754-1.762-3.606-2.195-5.58c-0.293-1.33-0.541-2.669-0.781-4.01c0.021-1.268-0.079-2.653-0.315-4.09
		c-0.064-0.395-0.139-0.782-0.22-1.162c0.02-0.494,0.04-0.936,0.044-1.376c0.014-1.86-0.043-3.723,0.041-5.579
		c0.1-2.197,0.278-4.393,0.496-6.582c0.248-2.506,0.549-5.008,0.883-7.504c0.202-1.521,0.504-3.028,0.773-4.54
		c0.359-2.023,0.714-4.048,1.103-6.065c0.247-1.28,0.552-2.55,0.835-3.823c0.117-0.521,0.271-1.035,0.361-1.561
		c0.087-0.509-0.415-0.424-0.667-0.541c-0.288-0.135-0.634-0.146-0.955-0.211c-0.355,0.058-0.712,0.117-1.067,0.175
		c-0.12,0.104-0.227,0.27-0.362,0.299c-1.06,0.232-1.857,0.91-2.63,1.59c-1.326,1.166-2.357,2.592-3.296,4.07
		c-0.689,1.088-1.406,2.185-1.752,3.446c-0.266,0.968-0.437,1.962-0.646,2.945c-0.226,1.063-0.454,2.127-0.67,3.193
		c-0.288,1.418-0.564,2.84-0.852,4.259c-0.254,1.26-0.533,2.517-0.773,3.78c-0.459,2.419-0.901,4.842-1.346,7.264
		c-0.271,1.473-0.552,2.945-0.795,4.422c-0.249,1.517-0.447,3.042-0.683,4.561c-0.314,2.026-0.5,4.087-1.003,6.065
		c-0.663,2.603-2.337,4.499-4.757,5.717c-2.399,1.208-4.975,1.631-7.617,1.589c-2.105-0.034-4.218-0.157-6.307-0.409
		c-1.734-0.208-3.444-0.631-5.152-1.017c-1.585-0.358-3.162-0.76-4.725-1.202c-1.528-0.432-3.043-0.914-4.55-1.415
		c-1.644-0.547-3.281-1.118-4.905-1.721c-1.605-0.596-3.176-1.283-4.789-1.856c-0.948-0.336-1.943-0.548-2.924-0.784
		c-1.539-0.371-3.084-0.716-4.627-1.069c-0.981-0.225-1.966-0.438-2.947-0.668c-1.232-0.291-2.46-0.599-3.693-0.888
		c-0.739-0.173-1.48-0.338-2.227-0.479c-0.981-0.185-1.963-0.383-2.953-0.501c-0.974-0.115-1.958-0.158-2.938-0.194
		c-0.699-0.026-1.401-0.001-2.101,0.023c-0.983,0.034-1.933,0.234-2.859,0.578c-0.927,0.344-1.625,1.25-1.684,2.247
		c-0.008,0.152-0.098,0.299-0.151,0.449c0.059,0.356,0.117,0.711,0.176,1.067c0.101,0.157,0.224,0.305,0.294,0.474
		c0.109,0.261,0.127,0.574,0.279,0.799c0.699,1.039,1.399,2.079,2.16,3.072c0.778,1.014,1.685,1.864,2.983,2.237
		c1.054,0.303,2.078,0.715,3.154,1.108c0.892,0.924,2.369,1.499,4.057,1.549c2.056,0.784,4.114,1.56,6.149,2.392
		c3.261,1.333,6.5,2.718,9.726,4.13c2.718,1.188,5.443,2.371,8.096,3.697c3.628,1.815,7.221,3.708,10.766,5.679
		c1.482,0.824,2.892,1.778,4.299,2.716c0.261,1.318,1.598,2.278,3.384,2.612c2.268,2.176,2.687,4.882,1.625,7.889
		c-0.174,0.494-0.369,0.977-0.58,1.449c-0.739,0.476-1.17,1.233-1.043,2.002c0,0.005,0.001,0.01,0.002,0.015
		c-0.546,0.927-1.163,1.812-1.844,2.655c-1.677,2.08-3.356,4.166-5.157,6.136c-2.075,2.271-4.273,4.43-6.443,6.615
		c-2.027,2.042-4.092,4.048-6.129,6.077c-2.01,2.006-4.052,3.981-6,6.046c-2.589,2.744-5.163,5.505-7.627,8.358
		c-2.107,2.444-4.041,5.033-6.069,7.543c-0.476,0.589-0.429,1.178-0.168,1.808c0.274,0.662,0.74,1.172,1.214,1.706
		c0.72,0.814,1.651,1.173,2.607,1.165c1.181-0.013,2.363-0.326,3.537-0.552c0.474-0.091,0.931-0.287,1.391-0.446
		c0.811-0.284,1.64-0.529,2.424-0.875c0.966-0.422,1.901-0.923,2.839-1.407c0.366-0.191,0.767-0.378,1.042-0.669
		c0.955-1.016,1.846-2.087,2.79-3.114c2.646-2.879,5.23-5.817,7.981-8.591c3.069-3.097,6.281-6.051,9.46-9.037
		c1.029-0.967,2.153-1.829,3.223-2.75c1.052-0.907,2.085-1.837,3.14-2.744c0,0,0.002,0,0.003-0.002
		c1.422-0.356,2.51-1.391,2.93-2.664c0.033-0.003,0.067-0.006,0.101-0.011c0.081-0.013,0.158-0.035,0.233-0.063
		c-0.002,0.004-0.004,0.007-0.006,0.009c-0.054,0.091-0.089,0.268-0.039,0.326c0.083,0.093,0.287,0.201,0.356,0.161
		c0.284-0.166,0.552-0.372,0.797-0.595c0.024-0.022,0.047-0.047,0.071-0.071c0.631-0.109,1.173-0.447,1.571-0.925
		c0.325,0.06,0.727-0.059,0.748-0.314c0.013-0.159,0.051-0.269,0.108-0.348c0.229-0.063,0.451-0.132,0.667-0.203
		c0.057-0.004,0.114-0.01,0.173-0.018c-0.011-0.011-0.021-0.021-0.032-0.03c0.291-0.1,0.568-0.207,0.831-0.319
		c0.107,0.042,0.235,0.047,0.397-0.012c0.769-0.279,1.5-0.69,2.287-0.889c1.078-0.272,2.19-0.528,3.292-0.555
		c1.689-0.042,3.271,0.529,4.776,1.277c2.699,1.344,5.073,3.156,7.269,5.193c1.739,1.616,3.425,3.293,5.084,4.995
		c1.022,1.046,1.946,2.188,2.923,3.282c1.112,1.246,2.102,2.604,3.557,3.519c1.019,0.64,1.989,1.36,2.949,2.088
		c1.5,1.135,2.971,2.308,4.455,3.463c1.654,1.284,3.298,2.584,4.971,3.846c1.966,1.489,3.956,2.942,5.937,4.411
		c1.54,1.146,3.174,2.133,4.899,2.979c1.274,0.628,2.579,1.113,3.994,1.282c0.294,0.037,0.588,0.076,0.88,0.115
		c0.393-0.063,0.782-0.127,1.174-0.193c0.212-0.14,0.423-0.282,0.67-0.448c-0.041-0.069-0.088-0.212-0.182-0.307
		c-1.073-1.099-2.164-2.182-3.236-3.286c-1.378-1.424-2.797-2.814-4.104-4.305c-2.444-2.793-4.845-5.627-7.218-8.479
		c-0.313-0.377-0.621-0.757-0.925-1.14c-0.398-1.17-1.041-2.013-1.699-2.207c-0.289-0.39-0.578-0.781-0.864-1.174
		c-1.109-1.522-2.153-3.094-3.206-4.658c-0.706-1.052-1.422-2.102-2.058-3.194c-1.508-2.597-3.005-5.202-4.143-7.987
		c-0.689-1.687-1.402-3.374-1.926-5.114c-0.573-1.901-1.067-3.828-1.22-5.841c-0.175-2.322-0.128-4.617,0.479-6.861
		c0.724-2.675,2.048-5.052,4.096-6.935c1.391-1.276,2.878-2.46,4.417-3.551c1.26-0.894,2.638-1.631,4.008-2.355
		c1.28-0.677,2.612-1.256,3.928-1.862c0.925-0.425,1.851-0.853,2.796-1.229c1.279-0.51,2.574-0.988,3.87-1.448
		c1.352-0.479,2.71-0.936,4.072-1.375c1.314-0.423,2.637-0.815,3.96-1.212c1.459-0.437,2.912-0.888,4.384-1.285
		c1.419-0.383,2.855-0.709,4.288-1.055c2.634-0.636,5.264-1.294,7.907-1.894c1.841-0.418,3.699-0.771,5.558-1.126
		c2.243-0.43,4.497-0.823,6.742-1.252c0.909-0.174,1.854-0.206,2.65-0.821c0.709-0.547,1.537-0.94,2.246-1.488
		c0.946-0.73,1.877-1.494,2.716-2.341c0.491-0.493,0.822-1.159,1.157-1.782c0.216-0.397,0.307-0.863,0.454-1.296
		c-0.042-0.25-0.083-0.499-0.123-0.748C183.482,64.989,183.082,64.391,182.381,64.097z"/>
	
		<ellipse transform="matrix(0.9828 -0.1844 0.1844 0.9828 -12.486 6.3283)" fill-rule="evenodd" clip-rule="evenodd" fill="#F15A29" cx="27.78" cy="70.292" rx="3.718" ry="3.02"/>
	
		<ellipse transform="matrix(0.9828 -0.1845 0.1845 0.9828 -13.007 9.2984)" fill-rule="evenodd" clip-rule="evenodd" fill="#F15A29" cx="43.474" cy="74.56" rx="2.556" ry="2.672"/>
	<circle fill-rule="evenodd" clip-rule="evenodd" fill="#F15A29" cx="36.187" cy="72.262" r="1.859"/>
	
		<ellipse transform="matrix(0.9829 -0.1843 0.1843 0.9829 -13.6493 12.0268)" fill-rule="evenodd" clip-rule="evenodd" fill="#F15A29" cx="57.862" cy="79.427" rx="3.718" ry="4.298"/>
	<circle fill-rule="evenodd" clip-rule="evenodd" fill="#F15A29" cx="71.565" cy="86.313" r="1.743"/>
	
		<ellipse transform="matrix(0.9828 -0.1845 0.1845 0.9828 -13.2451 15.3656)" fill-rule="evenodd" clip-rule="evenodd" fill="#F15A29" cx="75.96" cy="78.869" rx="1.162" ry="0.813"/>
	
		<ellipse transform="matrix(0.9828 -0.1849 0.1849 0.9828 -18.1056 17.3489)" fill-rule="evenodd" clip-rule="evenodd" fill="#F15A29" cx="83.955" cy="105.739" rx="1.743" ry="3.137"/>
	
		<ellipse transform="matrix(0.9828 -0.1844 0.1844 0.9828 -15.9192 17.2019)" fill-rule="evenodd" clip-rule="evenodd" fill="#F15A29" cx="84.505" cy="94.17" rx="1.627" ry="1.858"/>
	
		<ellipse transform="matrix(0.9829 -0.1844 0.1844 0.9829 -12.9006 18.9754)" fill-rule="evenodd" clip-rule="evenodd" fill="#F15A29" cx="95.58" cy="78.854" rx="2.324" ry="1.627"/>
	
		<ellipse transform="matrix(0.9829 -0.1843 0.1843 0.9829 -10.252 19.0619)" fill-rule="evenodd" clip-rule="evenodd" fill="#F15A29" cx="97.414" cy="64.68" rx="1.858" ry="2.44"/>
	
		<ellipse transform="matrix(0.9829 -0.1843 0.1843 0.9829 -8.7968 18.977)" fill-rule="evenodd" clip-rule="evenodd" fill="#F15A29" cx="97.713" cy="56.822" rx="2.207" ry="2.904"/>
	
		<ellipse transform="matrix(0.9829 -0.1842 0.1842 0.9829 -6.3615 18.8778)" fill-rule="evenodd" clip-rule="evenodd" fill="#F15A29" cx="98.441" cy="43.683" rx="0.929" ry="0.813"/>
	<circle fill-rule="evenodd" clip-rule="evenodd" fill="#F15A29" cx="98.961" cy="36.375" r="1.627"/>
	
		<ellipse transform="matrix(0.9829 -0.1843 0.1843 0.9829 -14.4756 21.6524)" fill-rule="evenodd" clip-rule="evenodd" fill="#F15A29" cx="109.248" cy="88.702" rx="3.02" ry="2.672"/>
	
		<ellipse transform="matrix(0.9829 -0.1841 0.1841 0.9829 -13.4844 23.7126)" fill-rule="evenodd" clip-rule="evenodd" fill="#F15A29" cx="120.988" cy="84.491" rx="1.162" ry="0.697"/>
	
		<ellipse transform="matrix(0.9829 -0.1843 0.1843 0.9829 -12.0659 25.4878)" fill-rule="evenodd" clip-rule="evenodd" fill="#F15A29" cx="131.05" cy="77.639" rx="1.86" ry="1.627"/>
	
		<ellipse transform="matrix(0.9829 -0.1843 0.1843 0.9829 -11.4955 27.0905)" fill-rule="evenodd" clip-rule="evenodd" fill="#F15A29" cx="139.964" cy="75.376" rx="0.813" ry="1.046"/>
	
		<ellipse transform="matrix(0.9828 -0.1844 0.1844 0.9828 -11.0131 29.048)" fill-rule="evenodd" clip-rule="evenodd" fill="#F15A29" cx="150.649" cy="73.728" rx="3.253" ry="2.556"/>
	<ellipse fill-rule="evenodd" clip-rule="evenodd" fill="#F15A29" cx="162.482" cy="76.228" rx="1.975" ry="1.626"/>
	<ellipse fill-rule="evenodd" clip-rule="evenodd" fill="#F15A29" cx="173.403" cy="68.095" rx="1.743" ry="1.858"/>
	
		<ellipse transform="matrix(0.9829 -0.1843 0.1843 0.9829 -19.7377 21.7279)" fill-rule="evenodd" clip-rule="evenodd" fill="#F15A29" cx="106.994" cy="117.022" rx="5.809" ry="4.298"/>
	
		<ellipse transform="matrix(0.9829 -0.1842 0.1842 0.9829 -22.3544 24.379)" fill-rule="evenodd" clip-rule="evenodd" fill="#F15A29" cx="120.069" cy="132.536" rx="2.556" ry="4.297"/>
	<circle fill-rule="evenodd" clip-rule="evenodd" fill="#F15A29" cx="115.979" cy="125.857" r="1.626"/>
	
		<ellipse transform="matrix(0.9829 -0.1841 0.1841 0.9829 -24.5745 27.1259)" fill-rule="evenodd" clip-rule="evenodd" fill="#F15A29" cx="133.809" cy="145.917" rx="1.743" ry="2.323"/>
	
		<ellipse transform="matrix(0.9828 -0.1846 0.1846 0.9828 -25.6569 29.138)" fill-rule="evenodd" clip-rule="evenodd" fill="#F15A29" cx="143.643" cy="152.347" rx="1.161" ry="1.859"/>
	<circle fill-rule="evenodd" clip-rule="evenodd" fill="#F15A29" cx="41.036" cy="154.214" r="0.813"/>
	
		<ellipse transform="matrix(0.9829 -0.1839 0.1839 0.9829 -25.996 11.578)" fill-rule="evenodd" clip-rule="evenodd" fill="#F15A29" cx="49.407" cy="145.907" rx="1.51" ry="1.625"/>
	<circle fill-rule="evenodd" clip-rule="evenodd" fill="#F15A29" cx="57.529" cy="135.636" r="2.324"/>
	
		<ellipse transform="matrix(0.9828 -0.1845 0.1845 0.9828 -25.3211 12.369)" fill-rule="evenodd" clip-rule="evenodd" fill="#F15A29" cx="53.803" cy="142.245" rx="2.324" ry="2.091"/>
	<path fill-rule="evenodd" clip-rule="evenodd" fill="#F15A29" d="M68.925,129.599c0.296,1.577-0.436,3.035-1.633,3.262
		c-1.198,0.225-2.41-0.874-2.705-2.447c-0.296-1.579,0.436-3.038,1.633-3.263C67.419,126.927,68.63,128.02,68.925,129.599z"/>
	
		<ellipse transform="matrix(0.9829 -0.1843 0.1843 0.9829 -21.517 15.7918)" fill-rule="evenodd" clip-rule="evenodd" fill="#F15A29" cx="74.192" cy="123.645" rx="2.323" ry="2.441"/>
	
		<ellipse transform="matrix(0.9829 -0.1844 0.1844 0.9829 -20.2996 16.0984)" fill-rule="evenodd" clip-rule="evenodd" fill="#F15A29" cx="76.412" cy="117.201" rx="1.743" ry="1.394"/>
	
		<ellipse transform="matrix(0.9829 -0.1843 0.1843 0.9829 -19.8866 17.9895)" fill-rule="evenodd" clip-rule="evenodd" fill="#F15A29" cx="86.817" cy="115.959" rx="0.813" ry="1.161"/>
	
		<ellipse transform="matrix(0.9829 -0.1841 0.1841 0.9829 -17.1646 21.1738)" fill-rule="evenodd" clip-rule="evenodd" fill="#F15A29" cx="105.43" cy="103.012" rx="1.278" ry="2.324"/>
</g>
</svg>
