<?xml version="1.0" encoding="utf-8"?>
<!-- Generator: Adobe Illustrator 16.0.3, SVG Export Plug-In . SVG Version: 6.00 Build 0)  -->
<!DOCTYPE svg PUBLIC "-//W3C//DTD SVG 1.1//EN" "http://www.w3.org/Graphics/SVG/1.1/DTD/svg11.dtd">
<svg version="1.1" id="Layer_1" xmlns="http://www.w3.org/2000/svg" xmlns:xlink="http://www.w3.org/1999/xlink" x="0px" y="0px"
	 width="200px" height="200px" viewBox="0 0 200 200" enable-background="new 0 0 200 200" xml:space="preserve">
<g>
	<g>
		<path fill="#FFB600" d="M157.003,156.526c-1.207-0.836-2.392-1.697-3.626-2.5c-3.015-1.951-6.119-3.785-9.666-4.596
			c-3.573-0.809-5.418-0.159-7.568,2.951c-1.605,2.319-2.272,5.019-2.638,7.795c-0.468,3.552-0.453,7.103-0.169,10.656
			c0.318,3.974,0.813,7.91,1.664,11.802c0.304,1.4,0.606,2.795,0.905,4.191c0.015,0.087-0.027,0.187-0.058,0.375
			c-0.975-1.567-1.874-3.063-2.811-4.536c-0.828-1.285-1.645-2.567-2.55-3.799c-1.391-1.909-2.82-3.799-4.293-5.643
			c-2.634-3.288-5.509-6.307-9.028-8.684c-1.799-1.216-3.651-2.267-5.809-2.562c-1.136-0.153-2.363-0.145-3.474,0.105
			c-1.898,0.438-3.003,1.953-3.942,3.533c-1.993,3.335-3.027,7.02-3.848,10.776c-0.216,1.004-0.403,2.01-0.725,2.982
			c-0.3-1.667-0.546-3.348-0.917-5c-0.605-2.701-1.28-5.389-2.626-7.839c-0.521-0.955-1.077-1.905-1.725-2.78
			c-1.338-1.798-3.198-2.407-5.391-2.244c-2.806,0.212-5.248,1.377-7.407,3.05c-2.208,1.717-4.359,3.534-6.34,5.502
			c-1.822,1.814-3.493,3.803-5.015,5.869c-2.435,3.305-4.689,6.731-7.021,10.105c-0.023,0.026-0.091,0.03-0.229,0.071
			c0.256-1.087,0.548-2.11,0.754-3.15c0.675-3.428,1.419-6.839,1.952-10.284c0.384-2.492,0.525-5.028,0.679-7.547
			c0.161-2.787,0.042-5.587-0.479-8.326c-0.399-2.078-1.047-4.092-2.328-5.858c-1.525-2.104-3.396-3.259-6.11-2.964
			c-2.585,0.276-4.927,1.177-7.158,2.393c-2.538,1.388-5.015,2.887-7.511,4.331c0.652-0.926,1.365-1.893,2.025-2.901
			c2.097-3.188,4.097-6.445,4.995-10.225c0.349-1.477,0.568-2.976-0.046-4.447c-0.708-1.675-2.04-2.744-3.565-3.626
			c-2.947-1.703-6.207-2.306-9.534-2.455c-2.718-0.118-5.459-0.083-8.173,0.104c-2.795,0.191-5.582,0.564-8.348,1.005
			c-2.565,0.407-5.106,1.008-7.655,1.515c-0.093,0.019-0.189-0.015-0.375-0.031c1.552-0.97,3.059-1.832,4.478-2.817
			c2.917-2.035,5.877-4.033,8.664-6.241c2.347-1.863,4.56-3.918,6.657-6.058c2.172-2.211,4.017-4.73,4.999-7.719
			c0.729-2.199,1.104-4.5-0.395-6.602c-1.078-1.521-2.635-2.457-4.259-3.262c-3.489-1.718-7.204-2.715-11.019-3.377
			c-0.472-0.082-0.932-0.227-1.5-0.369c1.699-0.322,3.29-0.586,4.872-0.927c2.808-0.602,5.613-1.254,8.144-2.677
			c1.192-0.67,2.396-1.399,3.4-2.311c1.811-1.638,1.888-3.842,1.446-6.039c-0.748-3.684-2.895-6.625-5.364-9.313
			c-1.791-1.939-3.726-3.752-5.655-5.562c-3.223-3.017-6.897-5.44-10.543-7.895c-0.97-0.644-1.967-1.253-2.914-1.998
			c1.015,0.238,2.028,0.506,3.052,0.714c3.194,0.652,6.384,1.357,9.597,1.898c3.445,0.578,6.932,0.82,10.427,0.82
			c2.999,0,5.974-0.28,8.834-1.196c2.27-0.728,4.278-1.937,5.594-4.045c0.924-1.487,0.852-3.125,0.536-4.73
			c-0.575-2.945-1.79-5.644-3.37-8.178c-1.089-1.748-2.204-3.485-3.3-5.227c-0.066-0.1-0.1-0.214-0.208-0.471
			c1.311,0.928,2.446,1.848,3.692,2.573c2.3,1.345,4.604,2.714,7.023,3.818c1.883,0.86,3.934,1.381,6.08,1.101
			c1.319-0.177,2.332-0.894,3.19-1.817c2.174-2.324,3.094-5.218,3.589-8.267c0.674-4.193,0.69-8.415,0.18-12.618
			c-0.486-3.998-1.12-7.979-1.732-11.957c-0.146-0.958-0.46-1.89-0.687-2.833c-0.031-0.131,0.004-0.277,0.008-0.453
			c1.477,2.308,2.864,4.589,4.359,6.801c3.098,4.577,6.425,8.971,10.516,12.744c2.388,2.201,4.911,4.19,8.024,5.244
			c1.838,0.622,3.738,0.905,5.617,0.126c1.483-0.612,2.438-1.824,3.258-3.131c1.614-2.577,2.593-5.42,3.34-8.346
			c0.483-1.902,0.887-3.823,1.346-5.793c0.292,1.617,0.549,3.187,0.87,4.738c0.714,3.447,1.711,6.809,3.516,9.866
			c1.722,2.916,4.579,3.967,7.813,3.173c3.559-0.87,6.384-2.936,9.048-5.271c4.26-3.727,7.791-8.117,11.042-12.726
			c1.477-2.093,2.88-4.236,4.439-6.532c-0.311,1.295-0.62,2.404-0.839,3.531c-0.687,3.611-1.408,7.214-1.982,10.838
			c-0.571,3.607-0.756,7.25-0.567,10.902c0.135,2.581,0.483,5.127,1.434,7.534c0.794,1.99,1.947,3.75,3.88,4.885
			c1.074,0.629,2.231,0.671,3.394,0.583c2.621-0.189,5.041-1.097,7.313-2.369c2.531-1.415,5.028-2.895,7.486-4.317
			c-0.516,0.755-1.09,1.614-1.681,2.461c-2.313,3.316-4.325,6.79-5.317,10.746c-0.335,1.331-0.506,2.723-0.012,4.083
			c0.659,1.806,2.039,2.96,3.635,3.872c3.091,1.757,6.501,2.289,9.982,2.5c3.803,0.231,7.6,0.061,11.369-0.457
			c3.378-0.459,6.733-1.107,10.097-1.686c0.863-0.15,1.715-0.342,2.763-0.553c-2.547,1.61-4.962,3.017-7.259,4.604
			c-2.301,1.594-4.494,3.339-6.697,5.064c-3.142,2.457-6.054,5.156-8.312,8.462c-1.024,1.506-1.999,3.12-2.616,4.818
			c-0.781,2.151-1.094,4.44,0.372,6.533c0.959,1.377,2.327,2.278,3.779,3.025c3.642,1.879,7.55,2.928,11.563,3.643
			c0.45,0.076,0.884,0.21,1.294,0.303c-2.743,0.601-5.525,1.07-8.211,1.844c-1.957,0.56-3.808,1.491-5.67,2.343
			c-1.216,0.548-2.232,1.399-3.02,2.503c-1.179,1.652-1.169,3.505-0.794,5.363c0.752,3.685,2.96,6.564,5.36,9.313
			c3.95,4.52,8.656,8.177,13.541,11.612c1.828,1.292,3.722,2.488,5.76,3.838c-1.204-0.28-2.234-0.503-3.245-0.756
			c-5.486-1.38-11.044-2.297-16.688-2.629c-3.572-0.212-7.134-0.14-10.641,0.689c-2.33,0.548-4.435,1.483-6.165,3.221
			c-1.345,1.35-1.831,2.947-1.653,4.769c0.251,2.611,1.109,5.038,2.41,7.301c1.254,2.185,2.529,4.361,3.812,6.528
			c0.195,0.342,0.477,0.622,0.722,0.936C157.084,156.435,157.045,156.479,157.003,156.526z M45.61,121.876
			c6.18,14.656,17.555,26.204,33.999,32.378c16.474,6.181,32.741,5.18,48.399-2.811c14.149-7.228,23.92-18.587,29.054-33.562
			c5.639-16.448,4.227-32.562-3.938-47.97c-13.077-24.664-45.547-40.306-77.506-25.767C46.465,57.402,33.491,90.944,45.61,121.876z"
			/>
	</g>
	<path fill="#FFE600" d="M82.258,48.799c27.492-10.367,58.136,3.385,68.443,30.713c10.305,27.331-3.632,57.892-31.129,68.259
		c-27.492,10.367-58.132-3.386-68.438-30.718C40.829,89.726,54.765,59.165,82.258,48.799z"/>
</g>
</svg>
