<?xml version="1.0" encoding="utf-8"?>
<!-- Generator: Adobe Illustrator 16.0.3, SVG Export Plug-In . SVG Version: 6.00 Build 0)  -->
<!DOCTYPE svg PUBLIC "-//W3C//DTD SVG 1.1//EN" "http://www.w3.org/Graphics/SVG/1.1/DTD/svg11.dtd">
<svg version="1.1" id="Layer_1" xmlns="http://www.w3.org/2000/svg" xmlns:xlink="http://www.w3.org/1999/xlink" x="0px" y="0px"
	 width="200px" height="200px" viewBox="0 0 200 200" enable-background="new 0 0 200 200" xml:space="preserve">
<path fill-rule="evenodd" clip-rule="evenodd" fill="#009444" d="M167.489,11.109c-1.83-1.832-3.718-3.573-5.649-5.234
	l-56.651,56.652c0.166,0.079,0.333,0.161,0.494,0.259c2.439,1.474,3.279,4.555,1.871,6.88c-0.743,1.23-1.969,1.986-3.318,2.223
	c0.029,0.379,0.065,0.756,0.073,1.141c0.476-0.095,0.938-0.065,1.355,0.125c1.605,0.726,1.953,3.42,0.775,6.02
	c-0.906,2.003-2.452,3.352-3.849,3.535c-0.182,0.491-0.4,0.979-0.608,1.467c1.023,1.106,1.096,3.444,0.057,5.743
	c-1.227,2.708-3.521,4.318-5.126,3.591c-0.195-0.088-0.369-0.208-0.525-0.354c-0.523,0.619-1.068,1.229-1.642,1.825
	c0.367,0.17,0.681,0.403,0.894,0.726c0.968,1.472-0.262,3.99-2.745,5.626c-2.485,1.635-5.284,1.767-6.252,0.294
	c-0.028-0.042-0.037-0.095-0.062-0.14c-0.132,0.077-0.263,0.158-0.396,0.234c0.126,0.15,0.231,0.318,0.308,0.5
	c0.631,1.51-0.75,3.525-3.088,4.504c-2.337,0.979-4.744,0.551-5.375-0.957c-0.087-0.209-0.128-0.428-0.142-0.649
	c-0.766,0.196-1.529,0.362-2.289,0.493c0,0.006,0.002,0.008,0.002,0.011c0,1.718-2.253,3.108-5.032,3.108
	c-2.188,0-4.031-0.867-4.724-2.072c-1.081,0.615-2.817,0.537-4.527-0.264L7.375,160.34c1.661,1.934,3.402,3.819,5.234,5.649
	c40.92,40.922,108.764,39.421,151.532-3.348C206.91,119.871,208.411,52.03,167.489,11.109z"/>
<path fill-rule="evenodd" clip-rule="evenodd" fill="#EF4136" d="M154.604,12.729c-1.702-1.7-3.451-3.321-5.243-4.869L99.11,58.111
	c0.33,0.88,0.303,1.838-0.185,2.642c-0.235,0.389-0.554,0.699-0.925,0.933c0.32,0.348,0.606,0.718,0.889,1.09
	c1.379-0.628,3.073-0.575,4.516,0.298c2.267,1.369,3.046,4.231,1.738,6.392c-0.69,1.143-1.829,1.845-3.082,2.065
	c0.025,0.352,0.061,0.702,0.067,1.059c0.441-0.088,0.871-0.06,1.259,0.116c1.492,0.674,1.814,3.178,0.722,5.593
	c-0.843,1.861-2.278,3.114-3.577,3.284c-0.168,0.456-0.371,0.909-0.564,1.363c0.95,1.027,1.018,3.199,0.052,5.335
	c-1.139,2.517-3.271,4.011-4.762,3.336c-0.181-0.082-0.343-0.194-0.487-0.329c-0.487,0.575-0.993,1.141-1.525,1.695
	c0.341,0.158,0.633,0.374,0.83,0.675c0.899,1.367-0.243,3.706-2.551,5.225c-2.308,1.519-4.909,1.643-5.809,0.274
	c-0.026-0.04-0.034-0.088-0.057-0.13c-0.123,0.072-0.245,0.146-0.369,0.217c0.118,0.141,0.215,0.296,0.287,0.467
	c0.586,1.4-0.698,3.272-2.869,4.183c-2.171,0.909-4.407,0.511-4.994-0.89c-0.081-0.193-0.119-0.396-0.131-0.604
	c-0.712,0.184-1.42,0.338-2.126,0.459c0,0.004,0.002,0.008,0.002,0.01c0,1.596-2.093,2.888-4.675,2.888
	c-2.032,0-3.745-0.806-4.389-1.925c-1.117,0.635-2.988,0.481-4.739-0.516c-2.244-1.277-3.424-3.436-2.634-4.822
	c0.004-0.007,0.011-0.011,0.015-0.018c-0.049-0.05-0.1-0.096-0.151-0.141l-47.984,47.983c1.547,1.792,3.168,3.542,4.869,5.242
	c38.016,38.017,99.912,37.755,138.25-0.583C192.357,112.642,192.62,50.745,154.604,12.729z"/>
<g>
	<path fill-rule="evenodd" clip-rule="evenodd" d="M35.237,148.33c-1.089,1.148-2.25,2.171-3.909,2.392
		c-1.44,0.188-2.771-0.075-3.988-0.886c-1.406-0.933-2.618-2.063-3.373-3.592c-0.264-0.533-0.399-1.15-0.504-1.743
		c-0.389-2.194,0.682-3.824,2.076-5.351c2.303-2.521,5.251-4.161,8.07-5.974c1.46-0.938,2.938-1.864,4.479-2.657
		c1.152-0.593,2.628,0.428,2.611,1.73c-0.054,4.295-0.71,8.478-2.701,12.332c-0.708,1.37-1.721,2.582-2.595,3.867
		C35.348,148.409,35.292,148.369,35.237,148.33z"/>
</g>
<g>
	<path fill-rule="evenodd" clip-rule="evenodd" d="M53.97,157.427c-0.809,1.359-1.716,2.613-3.285,3.194
		c-1.363,0.502-2.719,0.538-4.085,0.016c-1.577-0.6-3.008-1.435-4.082-2.759c-0.375-0.462-0.644-1.035-0.876-1.589
		c-0.864-2.055-0.178-3.881,0.844-5.677c1.689-2.969,4.204-5.218,6.553-7.606c1.218-1.237,2.455-2.468,3.783-3.58
		c0.994-0.833,2.658-0.163,2.929,1.111c0.896,4.2,1.178,8.425,0.086,12.624c-0.388,1.493-1.108,2.897-1.678,4.345
		C54.095,157.478,54.033,157.452,53.97,157.427z"/>
</g>
<g>
	<path fill-rule="evenodd" clip-rule="evenodd" d="M73.789,167.204c-0.386,1.535-0.897,2.996-2.235,4.002
		c-1.162,0.87-2.452,1.292-3.91,1.183c-1.683-0.125-3.293-0.516-4.701-1.478c-0.492-0.336-0.912-0.808-1.294-1.271
		c-1.415-1.723-1.28-3.668-0.813-5.683c0.771-3.326,2.537-6.201,4.105-9.161c0.813-1.534,1.646-3.065,2.601-4.513
		c0.714-1.082,2.5-0.915,3.125,0.229c2.059,3.769,3.537,7.736,3.691,12.073c0.055,1.541-0.234,3.093-0.366,4.643
		C73.924,167.219,73.857,167.212,73.789,167.204z"/>
</g>
<g>
	<path fill-rule="evenodd" clip-rule="evenodd" d="M98.376,166.72c0.164,1.574,0.185,3.122-0.727,4.524
		c-0.793,1.216-1.86,2.056-3.267,2.452c-1.624,0.46-3.271,0.645-4.923,0.225c-0.577-0.146-1.133-0.445-1.651-0.75
		c-1.92-1.134-2.461-3.007-2.713-5.059c-0.417-3.389,0.256-6.695,0.713-10.015c0.238-1.72,0.496-3.443,0.896-5.13
		c0.3-1.262,2.035-1.718,3.014-0.857c3.226,2.834,5.976,6.054,7.608,10.074c0.58,1.429,0.842,2.986,1.249,4.486
		C98.508,166.687,98.442,166.704,98.376,166.72z"/>
</g>
<g>
	<path fill-rule="evenodd" clip-rule="evenodd" d="M119.361,155.388c0.68,1.429,1.216,2.882,0.823,4.508
		c-0.342,1.411-1.066,2.558-2.261,3.402c-1.376,0.975-2.868,1.698-4.565,1.854c-0.592,0.054-1.217-0.043-1.808-0.156
		c-2.188-0.429-3.322-2.015-4.244-3.864c-1.524-3.056-1.992-6.396-2.669-9.678c-0.35-1.7-0.683-3.413-0.867-5.136
		c-0.139-1.288,1.345-2.298,2.555-1.813c3.986,1.596,7.653,3.714,10.534,6.959c1.022,1.153,1.788,2.535,2.672,3.812
		C119.475,155.313,119.418,155.352,119.361,155.388z"/>
</g>
<g>
	<path fill-rule="evenodd" clip-rule="evenodd" d="M140.366,140.876c1.229,0.995,2.341,2.076,2.688,3.712
		c0.3,1.42,0.141,2.768-0.572,4.044c-0.82,1.473-1.855,2.77-3.319,3.643c-0.51,0.304-1.116,0.486-1.698,0.639
		c-2.158,0.556-3.866-0.384-5.495-1.655c-2.694-2.1-4.557-4.911-6.584-7.58c-1.048-1.383-2.087-2.785-2.997-4.26
		c-0.681-1.102,0.223-2.652,1.522-2.737c4.285-0.28,8.506,0.049,12.505,1.733c1.421,0.601,2.707,1.516,4.057,2.286
		C140.438,140.759,140.402,140.818,140.366,140.876z"/>
</g>
<g>
	<path fill-rule="evenodd" clip-rule="evenodd" d="M152.74,123.002c1.23,0.995,2.341,2.076,2.688,3.712
		c0.3,1.42,0.142,2.768-0.572,4.044c-0.82,1.473-1.854,2.77-3.319,3.643c-0.51,0.303-1.115,0.485-1.698,0.639
		c-2.157,0.556-3.865-0.384-5.495-1.655c-2.694-2.1-4.557-4.911-6.584-7.58c-1.048-1.383-2.087-2.785-2.996-4.26
		c-0.682-1.102,0.222-2.652,1.521-2.737c4.285-0.28,8.507,0.049,12.506,1.733c1.42,0.601,2.707,1.516,4.056,2.286
		C152.812,122.885,152.777,122.944,152.74,123.002z"/>
</g>
<g>
	<path fill-rule="evenodd" clip-rule="evenodd" d="M167.945,107.163c1.38,0.773,2.657,1.651,3.277,3.204
		c0.535,1.35,0.606,2.704,0.119,4.083c-0.56,1.59-1.36,3.043-2.655,4.15c-0.451,0.386-1.019,0.668-1.566,0.917
		c-2.032,0.912-3.874,0.275-5.696-0.703c-3.01-1.612-5.321-4.068-7.77-6.356c-1.268-1.187-2.528-2.393-3.675-3.692
		c-0.856-0.971-0.229-2.65,1.038-2.955c4.175-1,8.392-1.39,12.618-0.406c1.501,0.352,2.924,1.036,4.385,1.568
		C167.995,107.035,167.971,107.102,167.945,107.163z"/>
</g>
<g>
	<path fill-rule="evenodd" clip-rule="evenodd" d="M168.633,86.311c1.541,0.355,3.013,0.84,4.043,2.158
		c0.892,1.146,1.341,2.426,1.259,3.886c-0.092,1.683-0.453,3.302-1.387,4.728c-0.325,0.497-0.79,0.927-1.247,1.318
		c-1.695,1.446-3.642,1.351-5.665,0.921c-3.341-0.704-6.247-2.415-9.239-3.926c-1.549-0.783-3.097-1.588-4.562-2.515
		c-1.095-0.692-0.961-2.481,0.169-3.127c3.729-2.13,7.666-3.685,11.999-3.924c1.539-0.083,3.097,0.175,4.648,0.276
		C168.645,86.175,168.641,86.244,168.633,86.311z"/>
</g>
<g>
	<path fill-rule="evenodd" clip-rule="evenodd" d="M166.059,64.86c1.582,0.034,3.122,0.209,4.399,1.289
		c1.105,0.939,1.806,2.101,2.023,3.547c0.253,1.667,0.229,3.326-0.395,4.912c-0.217,0.552-0.585,1.068-0.951,1.544
		c-1.365,1.761-3.29,2.064-5.359,2.057c-3.413-0.009-6.608-1.092-9.845-1.961c-1.677-0.451-3.355-0.924-4.979-1.532
		c-1.213-0.454-1.447-2.232-0.473-3.096c3.216-2.844,6.754-5.17,10.948-6.287c1.49-0.395,3.067-0.459,4.606-0.677
		C166.043,64.724,166.053,64.793,166.059,64.86z"/>
</g>
<g>
	<path fill-rule="evenodd" clip-rule="evenodd" d="M161.457,43.269c1.391-0.753,2.815-1.363,4.46-1.057
		c1.426,0.269,2.609,0.932,3.515,2.081c1.044,1.323,1.846,2.775,2.09,4.463c0.085,0.587,0.019,1.218-0.063,1.813
		c-0.313,2.206-1.837,3.422-3.638,4.44c-2.971,1.682-6.282,2.323-9.525,3.169c-1.68,0.438-3.373,0.858-5.084,1.133
		c-1.278,0.206-2.362-1.224-1.943-2.457c1.386-4.063,3.31-7.835,6.4-10.882c1.1-1.081,2.438-1.918,3.668-2.868
		C161.376,43.159,161.419,43.213,161.457,43.269z"/>
</g>
<g>
	<path fill-rule="evenodd" clip-rule="evenodd" d="M150.732,28.145c1.391-0.753,2.815-1.364,4.46-1.058
		c1.426,0.269,2.609,0.932,3.515,2.081c1.045,1.323,1.846,2.776,2.09,4.463c0.085,0.587,0.02,1.218-0.063,1.813
		c-0.313,2.206-1.837,3.422-3.637,4.44c-2.972,1.682-6.283,2.323-9.526,3.169c-1.68,0.438-3.373,0.858-5.084,1.133
		c-1.278,0.206-2.362-1.224-1.943-2.457c1.386-4.063,3.31-7.835,6.4-10.882c1.1-1.081,2.438-1.918,3.668-2.869
		C150.651,28.035,150.694,28.089,150.732,28.145z"/>
</g>
<g>
	<path fill-rule="evenodd" clip-rule="evenodd" d="M138.337,15.986c1.302-0.897,2.654-1.656,4.322-1.526
		c1.446,0.115,2.693,0.648,3.717,1.694c1.179,1.204,2.13,2.563,2.553,4.215c0.146,0.575,0.149,1.208,0.13,1.809
		c-0.076,2.227-1.462,3.598-3.144,4.802c-2.775,1.989-6,2.979-9.134,4.167c-1.624,0.614-3.262,1.212-4.935,1.668
		c-1.249,0.341-2.479-0.965-2.193-2.236c0.944-4.187,2.456-8.143,5.203-11.501c0.979-1.192,2.221-2.167,3.343-3.243
		C138.245,15.886,138.293,15.935,138.337,15.986z"/>
</g>
</svg>
