<?xml version="1.0" encoding="utf-8"?>
<!-- Generator: Adobe Illustrator 16.0.3, SVG Export Plug-In . SVG Version: 6.00 Build 0)  -->
<!DOCTYPE svg PUBLIC "-//W3C//DTD SVG 1.1//EN" "http://www.w3.org/Graphics/SVG/1.1/DTD/svg11.dtd">
<svg version="1.1" id="Layer_1" xmlns="http://www.w3.org/2000/svg" xmlns:xlink="http://www.w3.org/1999/xlink" x="0px" y="0px"
	 width="200px" height="200px" viewBox="0 0 200 200" enable-background="new 0 0 200 200" xml:space="preserve">
<rect fill="#00CFFF" width="200.125" height="136.5"/>
<path fill="#00BC98" d="M111.5,76C72.611,76,35.148,77.298,0,79.698V200h200V78.303C171.664,76.799,142.021,76,111.5,76z"/>
<path fill="#FFFF00" d="M200,200v-76.243c-28.093-8.337-62.64-13.257-100-13.257s-71.907,4.92-100,13.257V200H200z"/>
<g>
	<path fill="#B3EA2D" d="M140.57,81.603c0.498-0.896,0.832-1.96,1.533-2.647c1.188-1.162,2.437-2.36,4.17-2.742
		c2.504-0.551,4.844,0.206,7.158,0.988c0.603,0.203,1.096,0.72,1.641,1.092c0.003,0.07,0.005,0.141,0.008,0.211
		c-0.28,0.074-0.568,0.235-0.842,0.212c-2.028-0.178-4.01,0.028-5.957,0.622c-0.249,0.076-0.518,0.099-0.777,0.138
		c-0.762,0.114-1.449,0.156-2.136,0.781c-0.953,0.87-2.177,1.466-3.343,2.066c-0.396,0.203-0.967,0.062-1.455,0.077
		C140.57,82.134,140.57,81.867,140.57,81.603z"/>
	<path fill="#D17715" d="M197.582,67.979c-0.489,0.712-0.941,1.435-1.458,2.107c-1.271,1.653-2.136,3.536-3.106,5.359
		c-1.761,3.3-3.099,6.777-4.191,10.341c-0.768,2.501-1.482,5.029-2.021,7.587c-0.771,3.666-1.412,7.361-2.011,11.063
		c-0.407,2.528-0.71,5.08-0.94,7.631c-0.222,2.465,0.988,10.056,0.856,12.527c-0.015,0.266-0.021,0.531-0.011,0.797
		c0.058,1.746-0.545,2.032-2.135,2.248c-0.844,0.115-1.721-0.017-2.582-0.012c-0.545,0.002-1.088,0.072-1.633,0.07
		c-0.832-0.004-1.341-0.453-1.316-1.299c0.023-0.832,0.15-1.672,0.314-2.491c0.818-4.105,0.321-13.333,1.244-17.416
		c0.661-2.923,1.471-5.814,2.316-8.69c0.602-2.048,1.354-4.055,2.076-6.064c0.31-0.854,0.74-1.663,1.08-2.507
		c0.531-1.32,0.961-2.687,1.563-3.973c1.357-2.91,2.645-5.871,4.244-8.646c1.747-3.03,3.738-5.933,6.316-8.362
		C196.822,67.65,196.816,67.644,197.582,67.979z"/>
	<path fill="#F7941E" d="M158.396,81.578c0.24,0.168,0.502,0.312,0.715,0.508c1.893,1.748,3.527,3.706,4.914,5.884
		c2.201,3.458,3.914,7.157,5.375,10.969c1.047,2.735,1.084,7.238,1.98,10.028c0.594,1.842,1.164,3.701,1.59,5.588
		c0.725,3.223,0.487,6.473,1.121,9.719c0.188,0.949,0.271,1.922,0.417,2.882c0.063,0.413-0.098,0.551-0.508,0.544
		c-1.526-0.021-3.056-0.03-4.582-0.018c-0.534,0.006-0.748-0.201-0.776-0.736c-0.109-2.03-0.189-4.065-0.393-6.09
		c-0.297-2.967,0.223-5.935-0.206-8.885c-0.384-2.64,0.024-6.98-0.562-9.58c-0.519-2.298-1.193-4.566-1.946-6.799
		c-0.692-2.06-1.474-4.104-2.411-6.063c-1.255-2.625-2.611-5.212-4.57-7.415c-0.106-0.122-0.178-0.276-0.265-0.415
		C158.326,81.658,158.361,81.618,158.396,81.578z"/>
	<path fill="#8DC63F" d="M155.148,80.352c-0.399,0.507-0.696,1.031-1.127,1.403c-2.23,1.935-3.572,4.436-4.699,7.104
		c-1.62,3.841-2.186,7.854-2.092,11.987c0.004,0.223,0.057,0.454,0.004,0.661c-0.055,0.224-0.166,0.542-0.327,0.599
		c-0.181,0.063-0.499-0.063-0.671-0.211c-1.521-1.31-2.5-2.993-3.305-4.806c-1.347-3.027-1.531-6.157-0.771-9.335
		c0.582-2.425,1.9-4.36,3.945-5.897c2.668-2.004,5.563-2.248,8.672-1.639C154.861,80.233,154.938,80.274,155.148,80.352z"/>
	<path fill="#B3EA2D" d="M197.441,63.353c-4.256-1.244-8.354-1.123-12.223,1.253c-3.892,2.39-5.634,6.104-6.371,10.459
		c-0.082-0.011-0.162-0.022-0.242-0.033c-0.199-0.538-0.412-1.071-0.598-1.614c-0.804-2.366-0.834-4.764,0.112-7.06
		c0.704-1.707,1.403-3.453,2.907-4.722c3.137-2.646,6.646-3.631,10.599-2.369c1.407,0.449,2.717,1.232,4.026,1.945
		c0.606,0.329,1.125,0.836,1.644,1.306c0.162,0.146,0.195,0.437,0.288,0.66C197.537,63.236,197.49,63.295,197.441,63.353z"/>
	<path fill="#8DC63F" d="M174.121,86.662c-0.254-0.249-0.549-0.469-0.75-0.754c-0.252-0.355-0.52-0.741-0.623-1.154
		c-0.428-1.703-1.516-2.893-2.875-3.895c-0.159-0.117-0.35-0.235-0.438-0.399c-0.535-1.021-1.586-1.223-2.521-1.551
		c-2.306-0.812-4.667-0.826-7.045-0.324c-0.153,0.032-0.323-0.015-0.486-0.025c0.05-0.179,0.05-0.391,0.152-0.53
		c0.591-0.804,1.478-1.142,2.376-1.457c0.248-0.086,0.504-0.169,0.73-0.297c1.592-0.896,3.326-1.174,5.06-0.751
		c1.349,0.328,2.688,0.849,3.688,1.946c0.488,0.537,1.104,0.967,1.547,1.536c1.347,1.74,1.779,3.745,1.549,5.914
		c-0.059,0.541-0.086,1.084-0.125,1.625C174.281,86.585,174.2,86.624,174.121,86.662z"/>
	<path fill="#DCE83D" d="M155.959,75.081c0.175-0.788,0.208-1.521,0.5-2.133c0.629-1.313,1.32-2.685,2.572-3.471
		c1.048-0.658,1.973-1.681,3.375-1.667c0.127,0.001,0.271-0.046,0.379-0.115c1.443-0.933,2.99-0.508,4.52-0.352
		c0.396,0.04,0.764,0.142,0.76,0.646c-0.006,0.463-0.264,0.795-0.703,0.826c-1.514,0.109-2.696,1.058-4.055,1.555
		c-0.373,0.137-0.668,0.486-0.998,0.74c-0.244,0.189-0.457,0.457-0.731,0.558c-0.604,0.222-1.115,0.438-1.239,1.197
		c-0.04,0.244-0.523,0.385-0.725,0.639c-0.666,0.847-1.287,1.731-1.948,2.585c-0.185,0.237-0.415,0.512-0.679,0.591
		c-0.213,0.063-0.668-0.079-0.732-0.242C156.068,75.976,156.029,75.456,155.959,75.081z"/>
	<path fill="#B3EA2D" d="M156.43,85.069c0.34,2.977,0.684,5.954,1.008,8.933c0.026,0.255-0.004,0.643-0.162,0.757
		c-0.17,0.123-0.572,0.091-0.784-0.03c-1.478-0.844-2.4-2.132-2.753-3.783c-0.579-2.728,0.303-5.173,1.559-7.534
		c0.191-0.36,0.479-0.591,0.842-0.432c0.174,0.076,0.27,0.441,0.311,0.689c0.074,0.456,0.082,0.924,0.117,1.386
		C156.521,85.06,156.475,85.064,156.43,85.069z"/>
</g>
<g>
	<path fill="#FFB600" d="M0,0v0.087C0.037,0.057,0.077,0.03,0.115,0H0z"/>
	<path fill="#FFB600" d="M37.788,10.662c0.819-1.198,1.874-2.176,3.013-3.067c0.799-0.626,1.594-1.258,2.428-1.836
		c0.833-0.575,1.708-1.086,2.632-1.669c-0.38,0.076-0.689,0.146-1.002,0.2c-1.219,0.21-2.435,0.444-3.66,0.611
		c-1.366,0.188-2.742,0.249-4.121,0.166c-1.262-0.076-2.498-0.269-3.619-0.906c-0.578-0.331-1.078-0.749-1.317-1.404
		c-0.18-0.493-0.117-0.998,0.004-1.48c0.111-0.443,0.267-0.864,0.44-1.277h-5.384c2.272,1.823,4.153,4.07,5.48,6.574
		c2.96,5.586,3.472,11.427,1.428,17.389c-1.862,5.429-5.403,9.546-10.532,12.166c-5.675,2.896-11.572,3.259-17.544,1.019
		C3.751,36.291,1.742,35.142,0,33.758v2.056c0.037,0.047,0.079,0.082,0.115,0.132c0.465,0.641,0.699,1.371,0.844,2.124
		c0.189,0.994,0.232,2.009,0.174,3.019c-0.056,0.913-0.107,1.832-0.246,2.735c-0.193,1.25-0.463,2.486-0.708,3.729
		C0.13,47.8,0.063,48.051,0,48.301v0.352c0.841-1.218,1.656-2.454,2.534-3.646c0.552-0.749,1.158-1.47,1.818-2.128
		c0.718-0.713,1.498-1.371,2.298-1.994c0.783-0.606,1.668-1.028,2.685-1.105c0.795-0.06,1.469,0.161,1.954,0.813
		c0.234,0.317,0.436,0.662,0.625,1.008c0.488,0.888,0.733,1.863,0.952,2.842c0.134,0.6,0.224,1.208,0.333,1.813
		c0.117-0.353,0.185-0.718,0.263-1.082c0.297-1.362,0.672-2.697,1.395-3.906c0.341-0.572,0.741-1.121,1.429-1.28
		c0.403-0.092,0.847-0.095,1.259-0.039c0.782,0.107,1.453,0.488,2.105,0.928c1.276,0.862,2.318,1.957,3.273,3.148
		c0.534,0.668,1.052,1.353,1.556,2.045c0.328,0.446,0.624,0.911,0.924,1.377c0.34,0.534,0.666,1.076,1.019,1.644
		c0.011-0.068,0.026-0.104,0.021-0.136c-0.108-0.506-0.218-1.012-0.328-1.519c-0.309-1.411-0.488-2.838-0.603-4.278
		c-0.103-1.288-0.108-2.575,0.061-3.863c0.132-1.006,0.374-1.984,0.956-2.825c0.78-1.127,1.449-1.363,2.744-1.07
		c1.285,0.295,2.411,0.959,3.503,1.667c0.447,0.291,0.876,0.603,1.314,0.906c0.015-0.017,0.029-0.034,0.039-0.053
		c-0.089-0.114-0.191-0.215-0.262-0.339c-0.464-0.786-0.926-1.575-1.381-2.367c-0.471-0.82-0.783-1.699-0.873-2.646
		c-0.065-0.661,0.111-1.24,0.599-1.729c0.627-0.629,1.39-0.968,2.235-1.167c1.27-0.3,2.561-0.327,3.856-0.25
		c2.046,0.12,4.061,0.453,6.05,0.953c0.366,0.092,0.739,0.172,1.176,0.274c-0.738-0.489-1.425-0.923-2.088-1.391
		c-1.77-1.245-3.476-2.571-4.908-4.209c-0.87-0.997-1.671-2.041-1.943-3.376c-0.136-0.673-0.14-1.345,0.288-1.944
		c0.285-0.4,0.654-0.708,1.095-0.907c0.675-0.308,1.346-0.646,2.055-0.849c0.974-0.28,1.983-0.45,2.977-0.668
		c-0.149-0.034-0.306-0.082-0.469-0.11c-1.455-0.258-2.871-0.639-4.191-1.32c-0.526-0.271-1.022-0.598-1.37-1.097
		c-0.531-0.759-0.418-1.588-0.135-2.368C37.063,11.793,37.417,11.208,37.788,10.662z"/>
</g>
<path fill="#FFE600" d="M31.806,10.055C30.116,5.573,26.911,2.113,22.992,0H4.667C2.903,0.945,1.347,2.148,0,3.524v26.812
	c5.176,5.23,13.156,7.238,20.522,4.461C30.489,31.04,35.541,19.962,31.806,10.055z"/>
<path fill="#8DC63F" d="M200.125,53.423c-0.207-0.286-0.435-0.557-0.697-0.803c-2.052-1.925-4.32-3.503-7.15-4.097
	c-0.268-0.057-0.488-0.335-0.731-0.511c-1.507,0-3.013,0-4.521,0.003c-0.121,0.128-0.219,0.321-0.365,0.371
	c-0.439,0.147-0.896,0.233-1.344,0.35c-0.496,0.13-0.989,0.268-1.494,0.406c0.295,0.763,0.371,0.835,1.146,0.992
	c2.924,0.59,5.535,1.933,7.987,3.547c1.938,1.274,3.649,2.859,5.129,4.668c0.796,0.972,1.546,1.969,2.04,3.104V53.423z"/>
</svg>
